<?xml version="1.0" encoding="UTF-8"?>
<svg id="b" xmlns="http://www.w3.org/2000/svg" version="1.1" viewBox="0 0 351.8 176.5">
  <!-- Generator: Adobe Illustrator 30.2.1, SVG Export Plug-In . SVG Version: 2.1.1 Build 1)  -->
  <defs>
    <style>
      .st0 {
        fill: #fff;
      }
    </style>
  </defs>
  <path class="st0" d="M339.1,30.6h-14.8c-4.1,0-6.8,2.7-6.8,6.9s2.7,6.9,6.8,6.9h14.8c4.1,0,6.8-2.7,6.8-6.9s-2.7-6.9-6.8-6.9ZM339.3,39.8h-15c-1.4,0-2.7-.5-2.7-2.3s1.2-2.3,2.7-2.3h15c1.4,0,2.7.5,2.7,2.3s-1.2,2.3-2.7,2.3Z"/>
  <path class="st0" d="M318,97.9h27.4v-6.5c0-5.4-3.1-7.2-7.4-7.2h-12.6c-4.3,0-7.4,1.8-7.4,7.2v6.5ZM321.9,91.6c0-2.2,1.1-2.8,3.2-2.8h13.2c2.2,0,3.2.6,3.2,2.8v1.8h-19.7v-1.8Z"/>
  <rect class="st0" x="318" y="47.5" width="27.4" height="4.5"/>
  <path class="st0" d="M318,77.7l27.4,4.8v-4.4l-5.7-.8v-4.6l5.7-.8v-4.4l-27.4,4.8v5.4h0ZM335.8,73.4v3.4l-11.3-1.7,11.3-1.7Z"/>
  <polygon class="st0" points="318 151.5 318 163.4 345.5 163.4 345.5 158.8 333.4 158.8 333.4 153.3 329.5 153.3 329.5 158.8 322 158.8 322 151.5 318 151.5"/>
  <path class="st0" d="M339.1,119.4h-21.1v4.6h21.2c1.4,0,2.7.5,2.7,2.3s-1.2,2.3-2.7,2.3h-21.2v4.6h21.1c4.1,0,6.8-2.7,6.8-6.9s-2.7-6.9-6.8-6.9Z"/>
  <path class="st0" d="M339.1,136.1h-14.8c-4.1,0-6.8,2.7-6.8,6.9s2.7,6.9,6.8,6.9h14.8c4.1,0,6.8-2.7,6.8-6.9s-2.7-6.9-6.8-6.9ZM339.3,145.3h-15c-1.4,0-2.7-.5-2.7-2.3s1.2-2.3,2.7-2.3h15c1.4,0,2.7.5,2.7,2.3s-1.2,2.3-2.7,2.3Z"/>
  <polygon class="st0" points="318 68.4 322.1 68.4 322.1 63.5 345.5 63.5 345.5 59 322.1 59 322.1 54.3 318 54.3 318 68.4"/>
  <polygon class="st0" points="318 115.6 345.5 115.6 345.5 111.5 328.6 111.5 345.5 105.4 345.5 101.7 318 101.7 318 105.8 334.2 105.8 318 111.5 318 115.6"/>
  <polygon class="st0" points="318 27.6 345.5 27.6 345.5 23.5 328.6 23.5 345.5 17.4 345.5 13.6 318 13.6 318 17.7 334.2 17.7 318 23.5 318 27.6"/>
  <path class="st0" d="M87.4,145.5v-30.6c0-10.4-4.4-18-17.4-18h-15.7v66.5h15.7c13,0,17.4-7.5,17.4-17.9ZM65.2,154v-47.7h4.4c5.3,0,6.7,2.6,6.7,7.8v32c0,5.2-1.4,7.8-6.7,7.8h-4.4Z"/>
  <path class="st0" d="M189.2,149.6h11.1l1.9,13.8h10.6l-11.6-66.5h-13l-11.6,66.5h10.6l1.9-13.8ZM194.8,112.7l4.1,27.4h-8.2l4.1-27.4Z"/>
  <polygon class="st0" points="228.9 122.5 243.7 163.4 252.7 163.4 252.7 96.9 242.8 96.9 242.8 136.2 228.9 96.9 219 96.9 219 163.4 228.9 163.4 228.9 122.5"/>
  <polygon class="st0" points="269.9 163.4 280.8 163.4 280.8 106.8 292.3 106.8 292.3 96.9 258.2 96.9 258.2 106.8 269.9 106.8 269.9 163.4"/>
  <path class="st0" d="M111.2,164.5c10.2,0,16.7-6.4,16.7-16.4v-51.2h-11v51.5c0,3.5-1.2,6.4-5.6,6.4s-5.6-2.9-5.6-6.4v-51.5h-11v51.2c0,9.9,6.4,16.4,16.7,16.4Z"/>
  <polygon class="st0" points="147 122.5 161.8 163.4 170.8 163.4 170.8 96.9 160.9 96.9 160.9 136.2 147 96.9 137 96.9 137 163.4 147 163.4 147 122.5"/>
  <polygon class="st0" points="28.7 134.8 25.3 134.8 25.3 141 18.5 141 18.5 136.6 15.3 136.6 15.3 141 9.2 141 9.2 135 5.9 135 5.9 144.8 28.7 144.8 28.7 134.8"/>
  <polygon class="st0" points="28.7 122.4 25.3 122.4 25.3 128.6 18.5 128.6 18.5 124.2 15.3 124.2 15.3 128.6 9.2 128.6 9.2 122.6 5.9 122.6 5.9 132.4 28.7 132.4 28.7 122.4"/>
  <polygon class="st0" points="28.7 113.5 9.3 113.5 9.3 109.6 5.9 109.6 5.9 121.3 9.3 121.3 9.3 117.3 28.7 117.3 28.7 113.5"/>
  <polygon class="st0" points="28.7 147.9 5.9 147.9 5.9 152.9 20.2 155.6 5.9 158.3 5.9 163.3 28.7 163.3 28.7 160 11.6 160 28.7 156.9 28.7 154.6 11.5 151.3 28.7 151.3 28.7 147.9"/>
  <path class="st0" d="M11.9,100.7h1.3v-3.5h-1.5c-4.3,0-6.2,2-6.2,5.3s2.6,5.5,5.5,5.5,5.3-2.1,7.2-3.9c1.8-1.9,3.3-3.5,5.4-3.5s2.2,1,2.2,2c0,1.5-1,2.1-2.8,2.1h-2.1v3.5h2.4c3.4,0,5.8-2.1,5.8-5.6s-2.2-5.6-5.8-5.6-5.1,1.8-7.4,4.1c-2,2-3.2,3.3-5,3.3s-2.1-.6-2.1-1.8.8-1.8,3.1-1.8h0Z"/>
  <polygon class="st0" points="230.5 71.5 230.5 22.2 240.5 22.2 240.5 13.6 210.8 13.6 210.8 22.2 221 22.2 221 71.5 230.5 71.5"/>
  <polygon class="st0" points="284.6 71.5 292.4 71.5 292.4 13.6 283.8 13.6 283.8 47.8 271.7 13.6 263 13.6 263 71.5 271.7 71.5 271.7 35.9 284.6 71.5"/>
  <path class="st0" d="M207.2,30.9c0-9.9-2.2-17.3-13.5-17.3h-15v57.9h9.6v-24h3.4l6.6,24h9.4l-7.5-25.4c4.9-2.3,7-5.6,7-15.2h0ZM192.1,39.7h-3.8v-18.1h3.8c4.3,0,5.6,2,5.6,9.1s-1.3,9.1-5.6,9.1Z"/>
  <rect class="st0" x="245.4" y="13.6" width="9.5" height="57.9"/>
  <polygon class="st0" points="172.1 22 172.1 13.6 147.3 13.6 147.3 71.5 172.7 71.5 172.7 62.9 156.9 62.9 156.9 45.6 168.1 45.6 168.1 37.5 156.9 37.5 156.9 22 172.1 22"/>
  <path class="st0" d="M70,58.2v-31.3c0-8.7-5.6-14.3-14.5-14.3s-14.5,5.6-14.5,14.3v31.3c0,8.7,5.6,14.3,14.5,14.3s14.5-5.6,14.5-14.3ZM50.6,58.4v-31.7c0-3,1-5.6,4.9-5.6s4.9,2.6,4.9,5.6v31.7c0,3-1,5.6-4.9,5.6s-4.9-2.6-4.9-5.6Z"/>
  <path class="st0" d="M34.9,35.2v-8.5c0-8.6-5.3-14-13.9-14s-14.6,5.6-14.6,14.3v31.3c0,8.7,5.9,14.3,14.6,14.3s13.9-5.5,13.9-14v-9.1h-9.3v9.4c0,3.2-1.3,5.3-4.6,5.3s-5-2-5-5.5v-31.7c0-3.4,1.4-5.5,5-5.5s4.6,2.1,4.6,5.3v8.7s9.3,0,9.3,0Z"/>
  <path class="st0" d="M141.1,29.5c0-10.5-3.3-15.9-13.1-15.9h-14.9v57.9h14.3c11.5,0,14.4-5.6,14.4-16.6s-1.2-11.1-6.8-13.3v-.2c5-2.1,6.2-5.8,6.2-11.9h0ZM122.6,21.6h3.8c4.2,0,5.3,2.3,5.3,8.1s-1.1,8.3-5.3,8.3h-3.8v-16.4ZM126,63.5h-3.4v-17.9h3.4c5.5,0,6.3,3.3,6.3,9.1s-1,8.7-6.3,8.7h0Z"/>
  <path class="st0" d="M76.1,13.6v44.6c0,8.7,5.6,14.3,14.5,14.3s14.5-5.6,14.5-14.3V13.6h-9.6v44.8c0,3-1,5.6-4.9,5.6s-4.9-2.6-4.9-5.6V13.6h-9.6Z"/>
  <path class="st0" d="M351.8,0H0v1.7h304.3v81.5H0v1.7h40.6v89.9H0v1.7h351.8v-1.7h-45.8V1.7h45.8V0ZM304.3,174.8H42.3v-89.9h262v89.9Z"/>
</svg>