<svg width="63" height="28" viewBox="0 0 63 28" fill="none" xmlns="http://www.w3.org/2000/svg">
<path d="M4.03014 4.02344C4.03014 2.59653 3.12719 1.44092 2.01507 1.44092C0.902949 1.44092 0 2.59653 0 4.02344C0 5.45034 0.902949 6.60802 2.01507 6.60802C3.12719 6.60802 4.03014 5.45034 4.03014 4.02344Z" fill="white"/>
<path d="M33.9041 0.235591C33.6928 -0.381562 30.2446 0.272869 23.1412 1.51132C20.4882 1.97315 16.2634 3.07284 15.6049 3.23852C15.114 3.38763 12.7904 4.07312 11.4795 4.54531C10.8727 4.76483 9.63213 5.29086 9.63006 5.29086L9.98627 5.01335C10.5827 4.43762 12.7593 2.30865 12.5543 2.10362C12.3161 1.86546 11.0425 2.48261 10.5123 2.70213C9.98213 2.92166 7.65641 3.93851 6.35998 4.80004C5.06354 5.66157 4.49816 6.17517 3.53516 7.16717C2.76061 7.96657 1.72305 9.55088 1.53252 10.5512C1.43725 11.0523 1.35648 11.5949 1.36269 12.1437C1.36891 12.6884 1.46003 13.2372 1.70648 13.7612C2.19937 14.8091 2.8186 15.5402 3.10439 15.826C3.39019 16.1118 3.43575 16.1822 3.56415 16.1428C3.69255 16.1055 4.72804 14.3742 6.26886 13.113C7.80967 11.8517 11.6348 9.61301 11.6348 9.61301L9.96556 14.1257L9.10196 16.4659L8.32949 18.5576L6.15495 24.259C6.15495 24.259 4.54165 27.8356 5.00141 27.9619C5.50052 28.0986 9.04604 22.5422 10.065 20.991C11.0508 19.5123 13.1404 16.149 14.2918 14.0159C14.9214 12.8458 15.5096 11.597 15.9486 10.6029C16.3111 9.78283 16.5699 9.13461 16.6652 8.84674C16.8764 8.21095 17.0007 7.03463 17.0007 7.03463C17.0007 7.03463 19.9684 5.7382 22.3998 4.69856C23.4932 4.23052 24.479 3.81632 25.034 3.5968C26.1027 3.17225 34.0822 0.763692 33.9041 0.23352V0.235591ZM8.12239 10.1597H6.42004V11.8621H5.02005V10.1597H3.3177V8.76183H5.02005V7.05948H6.42004V8.76183H8.12239V10.1597Z" fill="white"/>
<path d="M22.7394 12.7861C22.4101 12.7861 22.1513 12.6142 21.9421 12.4009L21.4057 13.1795C21.7433 13.4467 22.1761 13.6041 22.6442 13.6041C23.019 13.6041 23.4249 13.5006 23.7542 13.2541C24.0897 13.0035 24.2388 12.6225 24.2968 12.2538C24.3921 11.6532 24.0338 11.3902 23.5409 11.239L23.3069 11.1645C23.1474 11.1106 22.8989 11.0257 22.9341 10.8103C22.9672 10.6032 23.2199 10.4997 23.398 10.4997C23.6341 10.4997 23.8453 10.597 24.0007 10.7461L24.5039 9.99645C24.2036 9.81006 23.7625 9.68994 23.3876 9.68994C22.6442 9.68994 22.027 10.1828 21.909 10.9367C21.7951 11.6574 22.1699 11.8148 22.7477 11.9867C22.9465 12.0447 23.311 12.1399 23.2675 12.4112C23.2261 12.6722 22.9672 12.7861 22.7394 12.7861Z" fill="white"/>
<path d="M31.245 9.78906H30.2385L29.1595 12.1893H29.1491L28.7991 9.78906H28.0308L26.871 12.1893H26.8607L26.5956 9.78906H25.5912L26.111 13.5065H27.0926L28.1633 11.3527H28.1716L28.4823 13.5065H29.4681L31.245 9.78906Z" fill="white"/>
<path d="M32.3218 9.78906L31.7337 13.5065H32.7008L33.289 9.78906H32.3218Z" fill="white"/>
<path d="M35.9937 10.4997C36.2422 10.4997 36.4617 10.597 36.6233 10.7461L37.1493 9.99645C36.8345 9.81006 36.3748 9.68994 35.9813 9.68994C35.2026 9.68994 34.5585 10.1828 34.4322 10.9367C34.3121 11.6574 34.7056 11.8148 35.3103 11.9867C35.5174 12.0447 35.8984 12.1399 35.855 12.4112C35.8115 12.6722 35.5402 12.7861 35.302 12.7861C34.9561 12.7861 34.6848 12.6142 34.4674 12.4009L33.9041 13.1795C34.2582 13.4467 34.7118 13.6041 35.2005 13.6041C35.5919 13.6041 36.0186 13.5006 36.3623 13.2541C36.7144 13.0035 36.8697 12.6225 36.9298 12.2538C37.0292 11.6532 36.6543 11.3902 36.1387 11.239L35.8922 11.1645C35.7265 11.1106 35.4656 11.0257 35.5029 10.8103C35.5381 10.6032 35.8011 10.4997 35.9875 10.4997H35.9937Z" fill="white"/>
<path d="M39.2617 12.7861C38.9324 12.7861 38.6735 12.6142 38.4644 12.4009L37.928 13.1795C38.2656 13.4467 38.6984 13.6041 39.1664 13.6041C39.5413 13.6041 39.9472 13.5006 40.2765 13.2541C40.612 13.0035 40.7611 12.6225 40.8191 12.2538C40.9144 11.6532 40.5561 11.3902 40.0632 11.239L39.8292 11.1645C39.6697 11.1106 39.4212 11.0257 39.4564 10.8103C39.4895 10.6032 39.7422 10.4997 39.9203 10.4997C40.1564 10.4997 40.3676 10.597 40.5229 10.7461L41.0262 9.99645C40.7259 9.81006 40.2868 9.68994 39.912 9.68994C39.1685 9.68994 38.5514 10.1828 38.4333 10.9367C38.3194 11.6574 38.6943 11.8148 39.2721 11.9867C39.4688 12.0447 39.8333 12.1399 39.7919 12.4112C39.7505 12.6722 39.4916 12.7861 39.2638 12.7861H39.2617Z" fill="white"/>
<path d="M21.8696 16.4326L21.7391 17.2507H22.5385L22.0788 20.15H23.0459L23.5036 17.2507H24.303L24.4335 16.4326H21.8696Z" fill="white"/>
<path d="M26.3491 16.4326L24.332 20.15H25.3571L25.7154 19.5039H27.047L27.1858 20.15H28.2151L27.4032 16.4326H26.3491ZM26.0985 18.7645L26.6846 17.582H26.695L26.9021 18.7645H26.0985Z" fill="white"/>
<path d="M29.3541 20.15H31.4686L31.5991 19.332H30.4497L30.5512 18.69H31.6405L31.771 17.872H30.6796L30.779 17.2507H31.9284L32.0568 16.4326H29.9423L29.3541 20.15Z" fill="white"/>
<path d="M35.6355 16.4326L34.2251 17.9651H34.2148L34.4571 16.4326H33.4899L32.9017 20.15H33.8689L34.1236 18.5367H34.134L35.126 20.15H36.3769L35.0763 18.193L36.8325 16.4326H35.6355Z" fill="white"/>
<path d="M41.2395 18.8329H41.2292L40.8792 16.4326H40.1108L38.9511 18.8329H38.9407L38.6756 16.4326H37.6692L38.191 20.15H39.1706L40.2413 17.9962H40.2517L40.5623 20.15H41.5481L43.325 16.4326H42.3185L41.2395 18.8329Z" fill="white"/>
<path d="M46.2906 16.3105C45.2199 16.3105 44.1099 17.0996 43.9318 18.2241C43.7412 19.4274 44.4702 20.2744 45.6631 20.2744C46.856 20.2744 47.8521 19.4274 48.0427 18.2241C48.2208 17.0996 47.3593 16.3105 46.2886 16.3105H46.2906ZM47.0362 18.2283C46.9347 18.8703 46.388 19.3383 45.8102 19.3383C45.2324 19.3383 44.8347 18.8703 44.9362 18.2283C45.017 17.7147 45.5637 17.2466 46.1415 17.2466C46.7193 17.2466 47.117 17.7147 47.0362 18.2283Z" fill="white"/>
<path d="M51.9921 18.7045H51.9838L50.5735 16.4326H49.6063L49.0181 20.15H49.9853L50.3456 17.872H50.3539L51.7643 20.15H52.7314L53.3196 16.4326H52.3524L51.9921 18.7045Z" fill="white"/>
<path d="M56.1568 16.4326H54.7858L54.1976 20.15H55.5686C56.6 20.15 57.5858 19.3361 57.7515 18.2924C57.9171 17.2465 57.1923 16.4347 56.1568 16.4347V16.4326ZM56.745 18.2924C56.6311 19.0172 56.0864 19.332 55.5107 19.332H55.2932L55.6225 17.2507H55.8503C56.4716 17.2507 56.8506 17.6255 56.745 18.2903V18.2924Z" fill="white"/>
<path d="M61.2245 16.3105C60.1538 16.3105 59.0438 17.0996 58.8657 18.2241C58.6751 19.4274 59.4041 20.2744 60.597 20.2744C61.7899 20.2744 62.786 19.4274 62.9766 18.2241C63.1547 17.0996 62.2931 16.3105 61.2245 16.3105ZM61.9701 18.2283C61.8686 18.8703 61.3219 19.3383 60.744 19.3383C60.1662 19.3383 59.7686 18.8703 59.8701 18.2283C59.9509 17.7147 60.4997 17.2466 61.0754 17.2466C61.6511 17.2466 62.0508 17.7147 61.9701 18.2283Z" fill="white"/>
</svg>
