<svg width="216" height="115" viewBox="0 0 216 115" fill="none" xmlns="http://www.w3.org/2000/svg">
<path d="M99.6504 41.3613L97.9633 44.2888C96.9369 43.5113 96.1168 43.1677 95.2958 43.1677C94.2468 43.1677 93.5853 43.6713 93.5853 44.4941C93.5853 45.2264 93.9728 45.5917 95.5238 46.324C98.0318 47.5138 98.8988 48.5888 98.8988 50.6014C98.8988 53.6664 96.4818 55.8173 93.0842 55.8173C91.2602 55.8173 89.9832 55.4059 87.9537 54.1474L89.6867 51.2198C91.0547 52.1574 91.8532 52.4784 92.9013 52.4784C94.1098 52.4784 94.9308 51.8609 94.9308 50.9224C94.9308 50.2588 94.5892 49.8935 93.1527 49.1838C90.4392 47.8113 89.6416 46.8276 89.6416 44.7689C89.6416 42.0014 92.0127 39.9653 95.2282 39.9653C96.7792 39.9653 98.1697 40.4002 99.6513 41.3604L99.6504 41.3613Z" fill="#646464"/>
<path d="M126.122 40.2646L119.578 55.5217H115.246L114.22 49.437C113.992 48.1332 113.901 47.1495 113.878 45.4796C113.376 47.1956 113.194 47.7209 112.624 49.1169L110.025 55.5217H105.898L103.185 40.2646H107.061L108.019 45.9832C108.338 47.8358 108.429 48.6594 108.566 50.993C108.931 49.6431 109.068 49.2543 109.204 48.8882L109.797 47.4244L112.67 40.2646H116.318L117.435 46.8295C117.617 47.767 117.732 49.0708 117.869 50.993C118.21 49.8266 118.371 49.323 118.621 48.7281L119.077 47.5844L121.95 40.2646H126.123H126.122Z" fill="#646464"/>
<path d="M134.786 40.2646L132.916 55.5217H129.062L130.932 40.2646H134.786Z" fill="#646464"/>
<path d="M150.427 41.3613L148.74 44.2888C147.714 43.5113 146.893 43.1677 146.072 43.1677C145.023 43.1677 144.363 43.6713 144.363 44.4941C144.363 45.2264 144.75 45.5917 146.3 46.324C148.808 47.5138 149.675 48.5888 149.675 50.6014C149.675 53.6664 147.258 55.8173 143.861 55.8173C142.037 55.8173 140.76 55.4059 138.73 54.1474L140.463 51.2198C141.831 52.1574 142.63 52.4784 143.678 52.4784C144.886 52.4784 145.707 51.8609 145.707 50.9224C145.707 50.2588 145.366 49.8935 143.929 49.1838C141.216 47.8113 140.418 46.8276 140.418 44.7689C140.418 42.0014 142.789 39.9653 146.005 39.9653C147.556 39.9653 148.946 40.4002 150.428 41.3604L150.427 41.3613Z" fill="#646464"/>
<path d="M164.973 41.3613L163.286 44.2888C162.26 43.5113 161.439 43.1677 160.618 43.1677C159.569 43.1677 158.909 43.6713 158.909 44.4941C158.909 45.2264 159.296 45.5917 160.847 46.324C163.355 47.5138 164.222 48.5888 164.222 50.6014C164.222 53.6664 161.805 55.8173 158.408 55.8173C156.584 55.8173 155.307 55.4059 153.277 54.1474L155.01 51.2198C156.378 52.1574 157.177 52.4784 158.225 52.4784C159.433 52.4784 160.254 51.8609 160.254 50.9224C160.254 50.2588 159.913 49.8935 158.476 49.1838C155.763 47.8113 154.965 46.8276 154.965 44.7689C154.965 42.0014 157.336 39.9653 160.552 39.9653C162.102 39.9653 163.493 40.4002 164.975 41.3604L164.973 41.3613Z" fill="#646464"/>
<path d="M103.572 67.7128L102.501 76.5425C102.136 79.47 101.748 80.6372 100.768 81.5748C99.6279 82.6724 97.8039 83.2673 95.5689 83.2673C91.6243 83.2673 89.2298 81.3226 89.2298 78.0514C89.2298 77.594 89.2983 76.8851 89.4128 75.9467L90.4158 67.7119H94.2468L93.2438 75.9467C93.1978 76.4041 93.1753 76.839 93.1753 77.2278C93.1753 78.829 93.9963 79.6065 95.6833 79.6065C96.6413 79.6065 97.3929 79.3552 97.8498 78.8516C98.3284 78.3028 98.4879 77.7766 98.6708 76.4041L99.7198 67.7119H103.573L103.572 67.7128Z" fill="#646464"/>
<path d="M122.382 67.7119L120.512 82.969H116.659L117.411 76.7242H111.825L111.05 82.969H107.196L109.066 67.7119H112.92L112.236 73.3618H117.822L118.529 67.7119H122.382Z" fill="#646464"/>
<path d="M128.333 67.7119H133.418C135.151 67.7119 136.701 67.9407 137.841 69.0618C138.981 70.1829 139.118 71.5553 139.118 72.5616C139.118 73.6592 138.958 75.0326 137.932 76.1528C136.883 77.2965 135.059 77.914 132.642 77.914H130.931L130.316 82.969H126.462L128.332 67.7119H128.333ZM131.799 70.9152L131.343 74.7125H132.552C133.099 74.7125 134.102 74.6664 134.695 74.0724C135.128 73.6375 135.173 73.0661 135.173 72.7226C135.173 72.0589 134.968 71.6476 134.74 71.4188C134.238 70.8926 133.417 70.9152 132.87 70.9152H131.798H131.799Z" fill="#646464"/>
<path d="M157.564 71.0773L156.081 82.9719H152.25L153.709 71.0773H150.471L150.881 67.7148H161.21L160.8 71.0773H157.562H157.564Z" fill="#646464"/>
<path d="M174.458 67.7119L174.048 71.0743H169.579L169.26 73.6131H173.592L173.182 76.9529H168.85L168.531 79.6065H173.182L172.772 82.969H164.268L166.138 67.7119H174.46H174.458Z" fill="#646464"/>
<path d="M182.643 80.4096L181.48 82.9719H177.193L184.741 67.7148H189.073L192.744 82.9719H188.708L188.07 80.4096H182.644H182.643ZM184.057 77.3907H187.34L186.702 74.4858C186.451 73.3195 186.428 73.1821 186.36 72.7246C186.338 72.6107 186.292 72.4271 186.269 72.1758C186.019 72.9768 185.813 73.4569 185.585 73.9831L184.058 77.3916L184.057 77.3907Z" fill="#646464"/>
<path d="M215.522 67.7119L216 82.969H212.147L211.964 76.1293V75.6492C211.964 74.8029 212.01 74.2306 212.147 73.1104C211.782 74.0941 211.485 74.7803 211.075 75.6266L207.336 82.969H205.306L204.007 77.0669C203.688 75.6257 203.573 74.8481 203.369 72.8582C203.004 74.7342 202.822 75.4657 202.57 76.358L200.609 82.969H196.642L201.453 67.7119H205.261L206.401 72.8591C206.697 74.1402 206.903 75.3978 207.085 76.8625C207.335 76.1537 207.678 75.3074 207.951 74.7812L211.53 67.7128H215.521L215.522 67.7119Z" fill="#646464"/>
<path d="M92.8128 97.5044L92.0684 103.475H90.1452L90.8779 97.5044H89.253L89.4594 95.8164H94.644L94.4376 97.5044H92.8128Z" fill="#646464"/>
<path d="M101.843 98.343L101.214 103.476H99.325L99.462 102.913C98.878 103.441 98.4319 103.625 97.7226 103.625C96.4294 103.625 95.594 102.684 95.594 101.202C95.594 99.4677 96.7385 98.1938 98.2841 98.1938C99.005 98.1938 99.3944 98.3665 99.9432 98.9289L99.9549 98.343H101.844H101.843ZM99.7377 100.754C99.7377 100.1 99.3484 99.6865 98.7302 99.6865C98.0435 99.6865 97.5171 100.283 97.5171 101.064C97.5171 101.719 97.9182 102.144 98.5472 102.144C99.2339 102.144 99.7377 101.558 99.7377 100.754Z" fill="#646464"/>
<path d="M105.792 101.293C105.792 101.477 105.792 101.925 106.055 102.166C106.147 102.258 106.33 102.361 106.639 102.361C106.799 102.361 106.971 102.327 107.119 102.224C107.268 102.12 107.336 101.994 107.371 101.879H109.431C109.305 102.258 109.099 102.58 108.87 102.809C108.218 103.487 107.256 103.625 106.65 103.625C105.574 103.625 104.979 103.212 104.692 102.948C104.361 102.626 103.994 102.052 103.994 101.133C103.994 100.146 104.394 99.4343 104.829 99.0094C105.275 98.5727 105.974 98.1938 107.016 98.1938C107.977 98.1938 108.584 98.5383 108.95 98.9054C109.476 99.4334 109.636 100.191 109.636 100.857C109.636 101.007 109.625 101.156 109.614 101.294H105.791L105.792 101.293ZM107.703 100.225C107.691 99.984 107.589 99.7544 107.44 99.6169C107.303 99.4904 107.097 99.4099 106.845 99.4099C106.594 99.4099 106.341 99.513 106.193 99.6621C106.044 99.8113 105.952 100.041 105.918 100.225H107.703V100.225Z" fill="#646464"/>
<path d="M114.695 95.103L114.065 100.178L115.702 98.3407H118.083L115.852 100.683L118.243 103.473H115.943L115.187 102.612C114.741 102.095 114.432 101.705 113.963 101.062L113.665 103.473H111.777L112.807 95.103H114.696H114.695Z" fill="#646464"/>
<path d="M129.552 98.3417L126.599 103.474H125.248L124.744 101.637C124.63 101.236 124.573 100.96 124.515 100.489C124.367 100.88 124.194 101.27 124.046 101.545L123.004 103.474H121.619L119.959 98.3417H121.87L122.385 99.9375C122.499 100.305 122.591 100.649 122.671 101.12C122.843 100.661 122.888 100.546 123.174 100.018L124.078 98.3417H125.337L125.829 99.8914C125.978 100.362 126.046 100.637 126.115 101.005C126.252 100.649 126.356 100.409 126.527 100.109L127.523 98.3408H129.549L129.552 98.3417Z" fill="#646464"/>
<path d="M137.346 100.823C137.346 102.477 136.11 103.625 134.324 103.625C132.538 103.625 131.256 102.545 131.256 100.927C131.256 99.3086 132.55 98.1938 134.381 98.1938C136.212 98.1938 137.345 99.2273 137.345 100.823H137.346ZM135.424 100.754C135.424 100.1 135.034 99.6865 134.405 99.6865C133.707 99.6865 133.18 100.283 133.18 101.064C133.18 101.719 133.592 102.144 134.222 102.144C134.921 102.144 135.424 101.558 135.424 100.754Z" fill="#646464"/>
<path d="M142.257 98.343L142.096 99.0094C142.795 98.3891 143.252 98.1938 143.95 98.1938C144.992 98.1938 145.564 98.7454 145.564 99.7553C145.564 99.9731 145.552 100.237 145.507 100.593L145.152 103.476H143.263L143.549 101.214C143.583 100.915 143.595 100.766 143.595 100.582C143.595 100.054 143.343 99.7661 142.908 99.7661C142.302 99.7661 142.038 100.133 141.912 101.156L141.626 103.475H139.738L140.367 98.3421H142.256L142.257 98.343Z" fill="#646464"/>
<path d="M154.788 95.103L153.758 103.473H151.881L152.018 102.865C151.411 103.416 150.919 103.623 150.221 103.623C148.974 103.623 148.138 102.692 148.138 101.292C148.138 99.535 149.271 98.1915 150.736 98.1915C151.447 98.1915 151.904 98.4094 152.431 99.007L152.9 95.103H154.789H154.788ZM152.282 100.753C152.282 100.098 151.893 99.6851 151.274 99.6851C150.576 99.6851 150.061 100.282 150.061 101.063C150.061 101.718 150.462 102.143 151.091 102.143C151.778 102.143 152.282 101.557 152.282 100.753Z" fill="#646464"/>
<path d="M162.88 100.823C162.88 102.477 161.644 103.625 159.858 103.625C158.072 103.625 156.791 102.545 156.791 100.927C156.791 99.3086 158.084 98.1938 159.915 98.1938C161.746 98.1938 162.879 99.2273 162.879 100.823H162.88ZM160.957 100.754C160.957 100.1 160.567 99.6865 159.938 99.6865C159.24 99.6865 158.714 100.283 158.714 101.064C158.714 101.719 159.126 102.144 159.755 102.144C160.454 102.144 160.957 101.558 160.957 100.754Z" fill="#646464"/>
<path d="M174.954 95.8164L174.748 97.5044H172.333L172.172 98.8018H174.37L174.163 100.478H171.966L171.6 103.475H169.666L170.604 95.8164H174.953H174.954Z" fill="#646464"/>
<path d="M182.715 100.823C182.715 102.477 181.479 103.625 179.693 103.625C177.907 103.625 176.625 102.545 176.625 100.927C176.625 99.3086 177.919 98.1938 179.75 98.1938C181.581 98.1938 182.714 99.2273 182.714 100.823H182.715ZM180.792 100.754C180.792 100.1 180.402 99.6865 179.773 99.6865C179.075 99.6865 178.549 100.283 178.549 101.064C178.549 101.719 178.961 102.144 179.59 102.144C180.289 102.144 180.792 101.558 180.792 100.754Z" fill="#646464"/>
<path d="M187.625 98.3417L187.476 99.0424C188.06 98.5144 188.46 98.3417 189.181 98.3417C189.261 98.3417 189.387 98.3535 189.547 98.3643L189.341 100.109C189.043 99.9484 188.814 99.8796 188.482 99.8796C187.703 99.8796 187.395 100.247 187.257 101.292L186.994 103.474H185.105L185.734 98.3408H187.623L187.625 98.3417Z" fill="#646464"/>
<path d="M197.857 102.187L197.273 103.472H195.121L198.909 95.8135H201.084L202.927 103.472H200.901L200.58 102.187H197.857ZM198.566 100.671H200.214L199.895 99.213C199.768 98.6271 199.757 98.5584 199.722 98.3287C199.711 98.2718 199.688 98.1796 199.676 98.053C199.55 98.4553 199.448 98.6958 199.333 98.9598L198.566 100.67V100.671Z" fill="#646464"/>
<path d="M208.146 95.103L207.116 103.473H205.228L206.258 95.103H208.146Z" fill="#646464"/>
<path d="M213.021 95.103L211.991 103.473H210.103L211.133 95.103H213.021Z" fill="#646464"/>
<path d="M16.5083 16.5356C16.5083 10.6724 12.8124 5.91943 8.25413 5.91943C3.69584 5.91943 0 10.6724 0 16.5356C0 22.3988 3.69494 27.1518 8.25413 27.1518C12.8133 27.1518 16.5083 22.3988 16.5083 16.5356Z" fill="#C1002A"/>
<path d="M138.871 0.969399C138.01 -1.57028 123.88 1.124 94.7842 6.21421C83.9202 8.11467 66.6099 12.6298 63.9135 13.3161C61.9002 13.9236 52.3817 16.74 47.0123 18.6847C44.5277 19.5853 39.4476 21.7452 39.4332 21.7515L40.894 20.6087C43.3336 18.2463 52.2528 9.49707 51.4084 8.64991C50.4324 7.67074 45.2126 10.2059 43.0425 11.1109C40.8724 12.015 31.3467 16.1948 26.0377 19.7344C20.7278 23.2732 18.4081 25.3843 14.4707 29.4592C11.2949 32.7447 7.05113 39.2535 6.26979 43.3673C5.87776 45.4314 5.55153 47.66 5.57856 49.9131C5.6056 52.149 5.9796 54.4102 6.98534 56.5575C9.00314 60.8674 11.5409 63.8709 12.7134 65.0463C13.885 66.2207 14.0706 66.5064 14.6005 66.3518C15.1304 66.1972 19.3697 59.0827 25.6826 53.8967C31.9956 48.7115 47.6639 39.5148 47.6639 39.5148L40.8237 58.0592L37.2928 67.6529L34.1278 76.2483L25.2194 99.6723C25.2194 99.6723 18.6082 114.365 20.4926 114.885C22.5392 115.45 37.0594 92.6184 41.232 86.2425C45.2676 80.1704 53.8317 66.35 58.5441 57.5782C61.127 52.771 63.5359 47.6419 65.3311 43.5535C65.3311 43.5535 65.3311 43.5535 65.3311 43.5526C66.8118 40.1802 67.8752 37.5167 68.2672 36.3359C69.1017 33.8215 69.6037 29.2548 69.6397 28.914C70.0056 28.753 81.943 23.5209 91.7454 19.3203C91.7472 19.3203 91.749 19.3194 91.7508 19.3185C96.2325 17.3973 100.267 15.693 102.545 14.7871C106.923 13.0457 139.608 3.14562 138.871 0.971207V0.969399ZM33.2717 41.7516H26.2999V48.7441H20.5683V41.7516H13.5984V36.0077H20.5683V29.0143H26.2999V36.0077H33.2717V41.7516Z" fill="#C1002A"/>
<path d="M26.3004 29.0156H20.5688V36.0081H13.5989V41.752H20.5688V48.7454H26.3004V41.752H33.2721V36.0081H26.3004V29.0156Z" fill="white"/>
</svg>
