<svg width="106" height="56" viewBox="0 0 106 56" fill="none" xmlns="http://www.w3.org/2000/svg">
<path d="M48.5695 20.1594L47.7472 21.5863C47.2469 21.2073 46.8472 21.0399 46.4471 21.0399C45.9358 21.0399 45.6134 21.2853 45.6134 21.6863C45.6134 22.0433 45.8022 22.2213 46.5582 22.5783C47.7806 23.1582 48.2032 23.6821 48.2032 24.6631C48.2032 26.1569 47.0251 27.2053 45.3691 27.2053C44.4801 27.2053 43.8577 27.0048 42.8685 26.3914L43.7132 24.9645C44.38 25.4214 44.7691 25.5779 45.28 25.5779C45.869 25.5779 46.2692 25.2769 46.2692 24.8195C46.2692 24.496 46.1027 24.318 45.4025 23.9721C44.08 23.3032 43.6912 22.8237 43.6912 21.8203C43.6912 20.4714 44.8469 19.479 46.4141 19.479C47.1701 19.479 47.8478 19.691 48.5699 20.159L48.5695 20.1594Z" fill="#646464"/>
<path d="M61.4718 19.624L58.2825 27.0603H56.171L55.6707 24.0946C55.5596 23.4592 55.5152 22.9797 55.5042 22.1658C55.2596 23.0022 55.1709 23.2582 54.8928 23.9386L53.626 27.0603H51.6147L50.2921 19.624H52.1813L52.6483 22.4113C52.8038 23.3142 52.8481 23.7156 52.9149 24.853C53.0928 24.1951 53.1595 24.0056 53.2259 23.8271L53.5149 23.1137L54.9152 19.624H56.6933L57.2379 22.8237C57.3267 23.2807 57.3825 23.9162 57.4492 24.853C57.6157 24.2846 57.6939 24.0391 57.816 23.7491L58.0383 23.1917L59.4386 19.624H61.4723H61.4718Z" fill="#646464"/>
<path d="M65.6943 19.624L64.7829 27.0603H62.9047L63.8161 19.624H65.6943Z" fill="#646464"/>
<path d="M73.318 20.1594L72.4957 21.5863C71.9959 21.2073 71.5957 21.0399 71.1955 21.0399C70.6843 21.0399 70.3623 21.2853 70.3623 21.6863C70.3623 22.0433 70.5512 22.2213 71.3067 22.5783C72.5291 23.1582 72.9517 23.6821 72.9517 24.6631C72.9517 26.1569 71.7736 27.2053 70.1176 27.2053C69.2286 27.2053 68.6062 27.0048 67.617 26.3914L68.4617 24.9645C69.1285 25.4214 69.5176 25.5779 70.0285 25.5779C70.6175 25.5779 71.0177 25.2769 71.0177 24.8195C71.0177 24.496 70.8512 24.318 70.151 23.9721C68.8284 23.3032 68.4397 22.8237 68.4397 21.8203C68.4397 20.4714 69.5954 19.479 71.1626 19.479C71.9185 19.479 72.5963 19.691 73.3184 20.159L73.318 20.1594Z" fill="#646464"/>
<path d="M80.4079 20.1594L79.5856 21.5863C79.0853 21.2073 78.6856 21.0399 78.2855 21.0399C77.7742 21.0399 77.4522 21.2853 77.4522 21.6863C77.4522 22.0433 77.6411 22.2213 78.397 22.5783C79.6194 23.1582 80.042 23.6821 80.042 24.6631C80.042 26.1569 78.8639 27.2053 77.208 27.2053C76.3189 27.2053 75.6965 27.0048 74.7074 26.3914L75.552 24.9645C76.2188 25.4214 76.608 25.5779 77.1188 25.5779C77.7078 25.5779 78.108 25.2769 78.108 24.8195C78.108 24.496 77.9415 24.318 77.2414 23.9721C75.9188 23.3032 75.5301 22.8237 75.5301 21.8203C75.5301 20.4714 76.6857 19.479 78.253 19.479C79.0085 19.479 79.6867 19.691 80.4088 20.159L80.4079 20.1594Z" fill="#646464"/>
<path d="M50.4813 33.0027L49.959 37.3062C49.7811 38.7331 49.5922 39.302 49.1143 39.759C48.5587 40.294 47.6697 40.5839 46.5803 40.5839C44.6577 40.5839 43.4907 39.636 43.4907 38.0417C43.4907 37.8187 43.524 37.4732 43.5798 37.0158L44.0687 33.0022H45.936L45.4471 37.0158C45.4247 37.2388 45.4137 37.4508 45.4137 37.6403C45.4137 38.4207 45.8138 38.7997 46.6361 38.7997C47.103 38.7997 47.4694 38.6772 47.6921 38.4317C47.9253 38.1642 48.003 37.9077 48.0922 37.2388L48.6035 33.0022H50.4817L50.4813 33.0027Z" fill="#646464"/>
<path d="M59.6492 33.0026L58.7377 40.4389H56.8595L57.2263 37.3952H54.5034L54.1256 40.4389H52.2474L53.1588 33.0026H55.0371L54.7037 35.7563H57.4266L57.7709 33.0026H59.6492Z" fill="#646464"/>
<path d="M62.5494 33.0026H65.0276C65.8723 33.0026 66.6278 33.1141 67.1834 33.6605C67.7391 34.2069 67.8058 34.8759 67.8058 35.3663C67.8058 35.9013 67.7281 36.5707 67.2278 37.1167C66.7165 37.6741 65.8275 37.9751 64.6494 37.9751H63.8157L63.5157 40.4389H61.6375L62.5489 33.0026H62.5494ZM64.2387 34.5639L64.0165 36.4147H64.6055C64.8721 36.4147 65.361 36.3922 65.65 36.1027C65.8613 35.8907 65.8833 35.6122 65.8833 35.4448C65.8833 35.1213 65.7831 34.9208 65.672 34.8093C65.4273 34.5529 65.0272 34.5639 64.7605 34.5639H64.2383H64.2387Z" fill="#646464"/>
<path d="M76.7964 34.6419L76.0739 40.4393H74.2066L74.9177 34.6419H73.3395L73.5394 33.0031H78.5736L78.3737 34.6419H76.7955H76.7964Z" fill="#646464"/>
<path d="M85.0309 33.0026L84.8311 34.6414H82.6529L82.4974 35.8788H84.6088L84.409 37.5067H82.2975L82.142 38.8H84.409L84.2091 40.4389H80.0639L80.9754 33.0026H85.0318H85.0309Z" fill="#646464"/>
<path d="M89.02 39.1905L88.4534 40.4393H86.3639L90.0426 33.0031H92.154L93.9431 40.4393H91.9761L91.6652 39.1905H89.0205H89.02ZM89.7092 37.7191H91.3094L90.9984 36.3032C90.8763 35.7348 90.8649 35.6678 90.8319 35.4448C90.8209 35.3893 90.7985 35.2998 90.7875 35.1773C90.6654 35.5677 90.5653 35.8017 90.4542 36.0582L89.7096 37.7195L89.7092 37.7191Z" fill="#646464"/>
<path d="M105.045 33.0026L105.279 40.4389H103.4L103.311 37.1052V36.8712C103.311 36.4587 103.334 36.1798 103.4 35.6338C103.222 36.1133 103.078 36.4477 102.878 36.8602L101.056 40.4389H100.066L99.433 37.5622C99.2775 36.8597 99.2217 36.4808 99.122 35.5109C98.9441 36.4253 98.8554 36.7818 98.7329 37.2167L97.7771 40.4389H95.8435L98.1882 33.0026H100.044L100.6 35.5113C100.744 36.1357 100.844 36.7487 100.933 37.4626C101.055 37.1171 101.222 36.7046 101.355 36.4482L103.1 33.003H105.045L105.045 33.0026Z" fill="#646464"/>
<path d="M8.04615 8.05986C8.04615 5.20212 6.2448 2.88553 4.02309 2.88553C1.80138 2.88553 3.05176e-05 5.20212 3.05176e-05 8.05986C3.05176e-05 10.9176 1.80094 13.2342 4.02309 13.2342C6.24524 13.2342 8.04615 10.9176 8.04615 8.05986Z" fill="#C1002A"/>
<path d="M67.6859 0.472485C67.2664 -0.765353 60.3795 0.547839 46.1979 3.0288C40.9028 3.95509 32.4658 6.15579 31.1515 6.49026C30.1703 6.78639 25.5309 8.15907 22.9139 9.10695C21.7029 9.54585 19.2269 10.5986 19.2198 10.6017L19.9319 10.0447C21.1209 8.89322 25.4681 4.62887 25.0565 4.21597C24.5808 3.73872 22.0367 4.97436 20.979 5.41547C19.9213 5.85613 15.2785 7.89335 12.6909 9.61856C10.1028 11.3433 8.97221 12.3723 7.05314 14.3584C5.50523 15.9598 3.43682 19.1322 3.05599 21.1372C2.86492 22.1432 2.70591 23.2295 2.71909 24.3276C2.73226 25.4174 2.91455 26.5195 3.40475 27.5661C4.38823 29.6668 5.62514 31.1307 6.1966 31.7036C6.76763 32.276 6.85811 32.4152 7.11639 32.3399C7.37466 32.2645 9.44088 28.7969 12.5178 26.2692C15.5947 23.742 23.2315 19.2595 23.2315 19.2595L19.8976 28.2981L18.1766 32.974L16.634 37.1634L12.292 48.5803C12.292 48.5803 9.06972 55.7416 9.98818 55.995C10.9857 56.2704 18.0629 45.1422 20.0966 42.0346C22.0635 39.0751 26.2377 32.339 28.5345 28.0636C29.7934 25.7206 30.9675 23.2207 31.8425 21.228C31.8425 21.228 31.8425 21.228 31.8425 21.2275C32.5641 19.5838 33.0825 18.2856 33.2735 17.7101C33.6803 16.4846 33.9249 14.2588 33.9425 14.0927C34.1208 14.0142 39.9391 11.4641 44.7168 9.41674C44.7177 9.41674 44.7185 9.4163 44.7194 9.41586C46.9038 8.47943 48.8703 7.64877 49.9803 7.20722C52.1146 6.3585 68.0452 1.53317 67.6859 0.473366V0.472485ZM16.2167 20.3497H12.8187V23.7579H10.0251V20.3497H6.62794V17.5502H10.0251V14.1416H12.8187V17.5502H16.2167V20.3497Z" fill="#C1002A"/>
<path d="M12.8188 14.142H10.0252V17.5502H6.62808V20.3497H10.0252V23.7583H12.8188V20.3497H16.2168V17.5502H12.8188V14.142Z" fill="white"/>
</svg>
