<svg width="61" height="60" viewBox="0 0 61 60" fill="none" xmlns="http://www.w3.org/2000/svg">
<g clip-path="url(#clip0_2_284)">
<path d="M60.2204 30.1098C60.2204 13.4809 46.7395 0 30.1098 0C13.48 0 0 13.4809 0 30.1098C0 44.2311 9.72133 56.0797 22.8364 59.3334V39.3108H16.6271V30.1098H22.8364V26.1452C22.8364 15.8963 27.4739 11.1467 37.5358 11.1467C39.4436 11.1467 42.7352 11.5207 44.0811 11.8947V20.2358C43.3702 20.1608 42.1363 20.1238 40.6025 20.1238C35.6651 20.1238 33.7573 21.9936 33.7573 26.8561V30.1098H43.5924L41.9033 39.3108H33.7582V59.9991C48.6672 58.1988 60.2204 45.5038 60.2204 30.1098Z" fill="white"/>
</g>
<defs>
<clipPath id="clip0_2_284">
<rect width="60.2204" height="60" fill="white"/>
</clipPath>
</defs>
</svg>
