<svg width="60" height="60" viewBox="0 0 60 60" fill="none" xmlns="http://www.w3.org/2000/svg">
<g clip-path="url(#clip0_2_282)">
<path d="M30 0C21.8563 0 20.8312 0.0375 17.6312 0.18125C14.4375 0.325 12.2562 0.83125 10.35 1.575C8.375 2.34375 6.70625 3.36875 5.0375 5.03125C3.36875 6.7 2.34375 8.375 1.575 10.3437C0.83125 12.25 0.325 14.4313 0.18125 17.625C0.0375 20.825 0 21.85 0 29.9938C0 38.1375 0.0375 39.1625 0.18125 42.3625C0.33125 45.5562 0.83125 47.7375 1.575 49.6438C2.34375 51.6188 3.36875 53.2875 5.0375 54.9563C6.70625 56.625 8.375 57.65 10.35 58.4188C12.2562 59.1625 14.4375 59.6687 17.6312 59.8125C20.8312 59.9562 21.8563 59.9937 30 59.9937C38.1437 59.9937 39.1688 59.9562 42.3688 59.8125C45.5625 59.6687 47.7437 59.1625 49.6562 58.4188C51.6312 57.65 53.3 56.625 54.9687 54.9563C56.6375 53.2875 57.6625 51.6125 58.4312 49.6438C59.1687 47.7375 59.675 45.5562 59.825 42.3625C59.9688 39.1625 60.0063 38.1438 60.0063 29.9938C60.0063 21.8438 59.9688 20.825 59.825 17.625C59.675 14.4313 59.1687 12.25 58.4312 10.3437C57.6625 8.36875 56.6375 6.7 54.9687 5.03125C53.3 3.3625 51.6312 2.3375 49.6562 1.575C47.7437 0.83125 45.5625 0.325 42.3688 0.18125C39.1688 0.0375 38.15 0 30 0ZM27.3125 5.40625C28.1125 5.40625 29 5.40625 30.0062 5.40625C38.0187 5.40625 38.9625 5.4375 42.1313 5.58125C45.0563 5.7125 46.6437 6.20625 47.7 6.6125C49.1 7.15625 50.1 7.80625 51.15 8.85625C52.2 9.90625 52.85 10.9063 53.3938 12.3063C53.8063 13.3625 54.2938 14.95 54.425 17.875C54.5688 21.0375 54.6 21.9875 54.6 29.9938C54.6 38 54.5688 38.95 54.425 42.1125C54.2938 45.0375 53.8 46.625 53.3938 47.6813C52.85 49.0813 52.2 50.075 51.15 51.125C50.1 52.175 49.1 52.825 47.7 53.3687C46.6437 53.7812 45.0563 54.2688 42.1313 54.4C38.9688 54.5438 38.0187 54.575 30.0062 54.575C21.9937 54.575 21.0438 54.5438 17.8813 54.4C14.9563 54.2625 13.3688 53.775 12.3125 53.3687C10.9125 52.825 9.9125 52.175 8.8625 51.125C7.8125 50.075 7.1625 49.075 6.61875 47.675C6.20625 46.6187 5.71875 45.0313 5.5875 42.1063C5.44375 38.9438 5.4125 37.9938 5.4125 29.9813C5.4125 21.9688 5.44375 21.025 5.5875 17.8625C5.71875 14.9375 6.2125 13.35 6.61875 12.2938C7.1625 10.8938 7.8125 9.89375 8.8625 8.84375C9.9125 7.79375 10.9125 7.14375 12.3125 6.6C13.3688 6.1875 14.9563 5.7 17.8813 5.5625C20.65 5.4375 21.7188 5.4 27.3125 5.39375V5.40625ZM46.0187 10.3875C44.0312 10.3875 42.4188 12 42.4188 13.9875C42.4188 15.975 44.0312 17.5875 46.0187 17.5875C48.0062 17.5875 49.6187 15.975 49.6187 13.9875C49.6187 12 48.0062 10.3875 46.0187 10.3875ZM30 14.5938C21.4938 14.5938 14.5938 21.4938 14.5938 30C14.5938 38.5062 21.4938 45.4063 30 45.4063C38.5062 45.4063 45.4063 38.5125 45.4063 30C45.4063 21.4875 38.5125 14.5938 30 14.5938ZM30 20C35.525 20 40 24.475 40 30C40 35.525 35.525 40 30 40C24.475 40 20 35.525 20 30C20 24.475 24.475 20 30 20Z" fill="white"/>
</g>
<defs>
<clipPath id="clip0_2_282">
<rect width="60" height="60" fill="white"/>
</clipPath>
</defs>
</svg>
