<svg width="69" height="68" viewBox="0 0 69 68" fill="none" xmlns="http://www.w3.org/2000/svg">
<path d="M34.034 67.2957C29.342 67.2957 24.922 66.4218 20.774 64.6402C16.626 62.8586 13.022 60.472 9.962 57.4468C6.902 54.4215 4.488 50.8584 2.686 46.7574C0.884 42.6565 0 38.2866 0 33.6479C0 29.0091 0.884 24.6392 2.686 20.5383C4.488 16.4374 6.902 12.8743 9.962 9.84898C13.022 6.82369 16.626 4.43708 20.774 2.65553C24.922 0.87397 29.342 0 34.034 0C38.726 0 43.146 0.87397 47.294 2.65553C51.442 4.43708 55.046 6.82369 58.106 9.84898C61.166 12.8743 63.58 16.4374 65.382 20.5383C67.184 24.6392 68.068 29.0091 68.068 33.6479C68.068 38.2866 67.184 42.6565 65.382 46.7574C63.58 50.8584 61.166 54.4215 58.106 57.4468C55.046 60.472 51.442 62.8586 47.294 64.6402C43.146 66.4218 38.726 67.2957 34.034 67.2957ZM34.034 60.5729C41.616 60.5729 48.076 57.951 53.346 52.7408C58.616 47.5306 61.268 41.1775 61.268 33.6479C61.268 26.1183 58.616 19.7652 53.346 14.555C48.076 9.34476 41.65 6.72285 34.034 6.72285C26.418 6.72285 19.992 9.34476 14.722 14.555C9.452 19.7652 6.8 26.1183 6.8 33.6479C6.8 41.1775 9.452 47.5306 14.722 52.7408C19.992 57.951 26.418 60.5729 34.034 60.5729Z" fill="#6374A2"/>
<path d="M34.1023 49.0767C35.9723 49.0767 37.5023 47.5641 37.5023 45.7153V29.7821L41.1403 33.3789C42.4663 34.6898 44.5743 34.6898 45.9003 33.3789C47.2263 32.0679 47.2263 29.9838 45.9003 28.6729L36.2783 19.16C35.0543 17.9499 33.1163 17.9499 31.8923 19.16L22.1683 28.7737C20.8423 30.0847 20.8423 32.1687 22.1683 33.4797C23.4943 34.7907 25.6023 34.7907 26.9283 33.4797L30.6683 29.7821V45.7153C30.6683 47.5641 32.1983 49.0767 34.0683 49.0767H34.1023Z" fill="#6374A2"/>
</svg>
