<svg width="285" height="288" viewBox="0 0 285 288" fill="none" xmlns="http://www.w3.org/2000/svg">
<g clip-path="url(#clip0_292_869)">
<path d="M87.8173 188.189L85.2893 183.949L76.2907 171.083C75.7595 170.324 75.0277 169.656 74.2196 169.275C75.1383 171.547 77.0069 172.972 77.7242 175.302L73.8203 170.263C73.2697 169.554 71.8285 168.909 71.0778 168.781L67.0451 168.087C66.2515 167.949 65.2681 167.478 64.4312 167.237C63.5455 166.983 62.8319 166.573 62.0981 165.999C58.522 163.198 60.1542 161.82 55.6794 158.127L55.5869 160.868C54.3602 160.416 54.6344 157.223 53.465 156.12C51.2521 154.032 47.793 151.362 46.6042 150.056L43.5733 146.728C42.2279 145.25 42.5802 144.325 42.1899 144.273L40.844 144.099L41.1718 141.746C40.4081 139.68 41.3612 133.082 43.5865 132.341C45.4754 134.073 47.3574 135.761 49.1025 137.562C49.3687 139.474 49.3365 141.728 51.0634 143.307L64.0063 155.117C65.1631 156.171 66.5438 157.075 68.1906 156.59L70.5363 155.901C71.1895 154.606 70.8125 152.154 69.5452 150.968L61.601 143.543L53.9383 136.689C52.6739 135.559 51.3866 135.366 49.87 136.45C48.2634 135.43 45.3773 132.871 43.9332 131.17C45.5154 128.859 48.3468 126.945 51.1363 126.931C54.5002 126.913 57.059 128.834 59.3699 131.077C61.2149 132.866 63.0928 134.588 65.0275 136.278C65.3273 136.541 66.2595 136.496 66.5847 136.326C66.957 136.13 67.2746 135.088 66.9454 134.762L62.8485 130.721C60.5427 128.45 58.3179 126.526 56.1218 123.812C61.9609 125.864 66.9428 127.898 72.3047 130.186L79.4092 137.036C79.5275 137.148 80.2377 137.085 80.252 137.208L80.3301 137.825C81.7582 139.292 83.3561 140.723 84.695 142.382L85.1479 145.103L84.0725 145.455C84.0172 147.021 84.7775 148.107 85.617 149.43C86.0871 150.173 86.5611 151.232 87.1222 151.832C87.8946 152.657 88.9973 153.608 88.3103 154.793C87.0262 154.702 86.6507 153.073 85.9766 152.198L83.1226 148.493C82.9948 148.326 82.2873 148.002 82.2071 148.191L81.739 149.328L73.3162 140.931C71.7153 139.335 70.1804 137.969 68.0863 136.918C66.9006 138.221 71.2375 142.13 71.6071 142.431C76.3803 146.323 78.6369 151.753 78.2347 157.926C78.1684 158.94 78.9593 160.719 79.5939 161.662L84.7489 169.328C84.8551 169.485 84.8503 169.994 84.8275 170.147C84.7985 170.348 84.0214 170.213 83.8636 169.988L78.8423 162.853C78.396 162.215 77.2107 161.817 76.7711 162.19L76.1768 166.175C75.8395 168.437 78.0178 170.625 79.2404 172.438L84.636 180.438C86.0981 182.603 87.6358 184.52 89.3104 186.577C89.8112 187.194 90.5208 188.326 89.8285 189.06C89.4759 189.433 88.18 188.795 87.8224 188.197L87.8173 188.189Z" fill="#6374A2"/>
<path d="M148.562 93.3285L145.893 90.3321C141.609 91.5332 137.682 93.2645 133.464 95.0296C131.849 93.1623 130.917 91.1818 130.222 88.7181L138.478 84.9672L140.641 88.4905C140.386 86.9968 139.93 85.0661 139.29 83.7338C139.115 83.3906 137.888 83.3826 137.799 83.0227L137.412 81.4548C137.169 80.4729 137.234 79.8132 137.424 78.7886C137.547 78.1136 137.63 76.6179 137.459 75.9143L134.742 64.7457L132.787 56.7345C132.717 56.448 132.84 55.8813 132.96 55.6603C133.106 55.3951 134.103 55.694 134.279 55.9395C136.734 59.3126 139.291 62.6546 141.291 66.336C142.672 68.8759 142.878 71.7842 143.93 74.4063C144.446 75.6954 144.973 76.9375 145.32 78.2904L146.752 83.8472L147.99 83.5726C148.281 83.5093 148.819 84.1479 148.859 84.5098L146.97 84.8033L148.24 89.4289L147.201 90.1996L148.56 93.326L148.562 93.3285Z" fill="#6374A2"/>
<path d="M63.4478 182.055L65.4623 186.304C64.175 184.894 63.36 183.456 62.5139 181.809C59.7726 176.465 57.3144 171.155 55.71 165.387C55.6547 165.194 55.6476 164.741 55.6789 164.563C55.7101 164.386 56.1662 164.161 56.342 164.164C56.5792 164.168 56.8777 164.62 56.9621 164.9C59.2584 172.466 59.9577 174.692 63.4453 182.056L63.4478 182.055Z" fill="#6374A2"/>
<path d="M227.128 90.3975L227.976 91.6093C228.488 93.2121 229.795 94.5324 230.671 96.1292C232.103 98.7419 233.665 101.21 234.851 103.904L237.59 110.116C243.884 124.386 245.248 140.359 243.321 155.682C243.057 157.785 243.46 159.583 243.822 161.576C244.385 164.66 244.943 167.86 246.724 170.564L248.55 173.337L251.747 177.582C251.779 177.628 257.23 186.059 257.487 186.493C257.615 186.711 257.175 187.372 256.946 187.323C255.225 186.96 249.746 177.361 247.682 174.707L243.966 169.931C243.435 169.251 242.267 168.975 241.628 169.657C242.091 170.973 242.911 172.19 243.74 173.405L249.227 181.416C249.408 181.68 248.689 182.335 248.489 182.153C247.646 181.382 244.653 177.897 244.383 177.429C243.265 175.496 242.222 173.604 240.833 171.647C239.31 173.108 239.58 174.793 239.035 176.424L236.027 185.458C233.969 191.637 231.012 197.204 227.296 202.58C225.97 204.498 224.952 206.475 223.122 208.034C223.604 206.292 224.871 204.899 225.515 203.286C226.158 201.672 226.482 200.221 227.512 198.828C230.176 195.221 233.22 186.751 234.534 182.061L233.987 182.1C229.878 191.139 225.089 199.593 219.085 207.499C215.563 212.139 211.95 216.93 207.511 220.674L201.574 225.68C202.089 225.59 202.267 225.559 202.346 225.529L202.774 225.366C202.854 225.336 202.498 225.864 202.417 225.934C199.854 228.257 196.572 230.291 193.458 232.132C181.755 239.052 169.241 242.999 155.729 244.428C149.837 245.05 142.117 245.363 136.901 244.248C136.459 244.153 136.184 243.074 135.947 243.143C135.71 243.211 135.341 243.314 135.075 243.399C133.622 243.041 131.622 243.274 130.196 243.832C129.262 245.104 136.619 253.753 138.005 255.722L146.502 267.785C146.69 268.054 146.655 268.829 146.457 269.005C145.257 270.072 142.798 265.054 142.434 264.555L129.626 246.835C128.979 245.942 128.075 244.884 127.241 244.135C126.564 243.53 124.77 242.861 123.851 242.709C120.65 242.177 117.871 241.457 114.795 240.592L108.107 238.716C104.443 237.688 101.113 236.104 97.6059 234.453C88.1398 229.997 79.4362 224.216 72.396 216.447L70.456 214.305C70.5854 214.005 70.7622 213.592 70.7526 213.744C70.7475 213.845 71.1436 214.405 71.3225 214.547L79.8022 221.164C83.5762 224.109 88.8576 227.577 92.6721 229.352C92.9981 229.503 93.9721 228.774 93.9055 229.2L93.784 229.985C96.1728 231.148 98.5118 232.291 101.242 233.11L94.5454 229.004L92.3511 228.377L93.376 228.01C91.8433 226.848 90.3041 225.65 88.4689 224.721L89.9179 226.78C88.5418 226.079 80.2715 221.406 80.8238 220.503L81.3326 219.677L80.0768 217.27C75.32 212.803 70.7778 208.529 66.7795 203.422C63.96 199.823 60.5808 195.085 58.5072 191.123L50.8512 176.486C51.8884 180.819 53.4649 184.938 55.6301 188.814L58.159 193.339C60.3739 197.307 63.0267 200.936 65.9226 204.427C66.8739 205.574 67.6732 206.715 68.4955 208.039C64.109 205.05 58.1804 197.506 55.3951 192.966L51.7989 187.098C47.4933 180.072 40.2717 161.031 41.7682 152.64C42.8444 154.838 43.3675 156.895 43.7886 159.193C44.4025 162.567 45.317 165.766 46.3827 169.01C47.0548 171.053 47.5168 173.06 48.7513 174.926L46.6721 167.489C45.5709 163.554 45.3144 159.66 44.9975 155.493C45.97 155.557 46.2798 155.968 46.8467 156.319C47.7485 156.879 48.3683 157.424 48.7003 158.662L49.4601 158.328C49.4625 158.615 49.5164 159.249 49.7855 159.422C50.0546 159.595 50.8243 159.338 51.398 159.12L54.1986 168.923C58.0967 182.573 66.0417 195.74 75.615 206.25C79.5872 210.613 83.8594 214.274 88.718 217.561C89.5325 218.111 90.5944 218.353 91.6143 218.159C86.1802 213.076 80.4731 208.721 76.2406 202.305C76.3581 202.097 76.3067 202.111 76.831 202.174C85.1523 211.628 95.1652 219.357 106.536 224.769C107.022 224.999 108.078 224.376 108.566 224.294C109.53 224.129 109.734 225.586 109.993 226.245L113.528 227.992C114.894 226.209 118.409 223.574 120.345 224.292C122.593 225.123 123.411 227.725 124.901 229.25C125.905 230.277 126.852 231.066 127.122 232.603L129.996 233.303C132.897 234.01 136.843 234.323 139.774 234.547C139.979 234.562 140.73 233.953 140.862 234.089L141.422 234.672C149.469 235.22 157.553 234.833 165.426 232.78C166.179 232.586 166.776 232.474 167.496 232.353C170.499 231.843 173.31 230.907 176.272 229.979L179.721 228.896C180.036 228.799 180.72 229.208 181.067 229.424C186.443 227.808 185.931 226.69 188.636 224.684C195.226 219.791 201.938 216.832 207.995 210.359L206.981 208.519C205.801 206.38 204.479 204.373 202.659 202.718C202.202 202.901 201.457 203.405 201.185 203.718L202.953 207.815L200.071 204.747C197.854 207.048 196.915 206.491 195.682 208.687C194.092 211.513 192.497 214.093 190.646 216.851C189.71 215.906 190.313 215.137 190.751 214.21L192.328 210.855L189.86 213.948C189.484 214.422 188.8 214.662 188.024 214.664L189.471 211.458C189.564 211.256 189.615 210.678 189.431 210.71C189.247 210.741 188.622 210.969 188.478 211.185L185.726 215.42L187.944 210.681C185.311 212.507 183.425 214.796 181.659 217.308C180.894 218.392 180.206 219.488 179.158 220.066L179.657 218.771C179.75 218.528 178.806 218.272 178.578 218.443C177.843 218.997 176.266 218.602 175.494 218.767C173.35 219.224 171.462 220.164 169.328 220.965C170.307 222.363 171.296 223.487 172.47 224.72C173.01 225.285 172.163 226.329 171.384 226.51L170.998 225.134C170.706 224.088 169.35 222.116 168.235 221.828C167.018 221.513 165.87 222.143 164.752 220.939C164.413 220.574 163.435 220.265 162.839 220.105C162.806 219.795 162.77 218.459 162.258 218.29L158.489 217.029C159.455 219.646 160.714 221.821 161.949 224.199L155.224 214.681L147.484 213.336C146.645 213.19 145.626 213.416 144.992 212.835C146.319 212.812 147.421 212.741 148.388 212.811L154.355 213.249L152.631 210.205C151.836 208.801 151.316 207.77 150.113 206.609C149.246 205.767 148.471 204.496 147.656 203.492L144.491 199.58C143.746 198.66 143.02 197.861 142.555 196.847L148.828 202.896C148.305 201.298 139.491 189.757 139.307 189.655C137.56 188.686 135.832 188.4 133.964 188.235L135.73 189.689L133.018 189.189C134.5 192.688 137.164 194.471 139.276 198.11C138.967 198.381 138.316 198.782 138.075 198.593C137.883 198.442 137.416 197.967 137.291 197.741C135.906 195.247 134.285 193.056 132.437 190.98C131.553 189.985 130.789 188.652 129.171 189.286C131.513 192.703 133.668 195.9 136.152 199.066C138.277 201.775 140.321 204.735 142.293 207.588C142.469 207.84 142.481 208.532 142.444 208.804C142.414 209.02 141.712 209.316 141.518 209.199C140.587 208.638 139.557 207.069 139.001 205.981C138.224 204.459 137.364 203.252 136.433 201.953L133.653 198.081L131.073 194.489C129.927 192.893 129.047 190.966 127.65 189.6L123.445 189.619C122.473 189.624 120.884 190.878 119.997 189.513C119.551 188.824 119.542 187.765 120.425 187.468C120.899 187.31 121.647 187.248 122.622 187.057C120.235 186.424 118.286 186.044 116.079 184.96L118.853 184.599L115.365 183.347C114.015 182.862 112.808 182.599 111.267 182.265L113.105 185.829C111.296 184.159 112.009 182.468 109.288 181.585C106.764 180.766 104.451 180.02 102.161 178.572L109.463 180.437C107.687 176.982 105.898 174.124 103.958 171.011L105.553 171.892C104.879 170.341 104.302 169.264 103.206 167.695L102.775 169.08L102.173 168.555L101.41 170.798L99.9214 165.758C99.1434 169.423 100.571 174.567 99.575 177.276C98.8655 173.277 98.5807 169.543 98.195 165.634L97.6372 159.979C97.2069 155.624 98.6264 158.621 95.9715 152.282C95.8934 152.098 96.0625 151.416 96.2138 151.534C96.3275 151.624 96.7614 151.971 96.8176 152.097L97.939 154.689L97.8816 148.051L98.6485 150.436C99.0262 148.933 99.2292 147.938 99.8051 146.491L100.223 149.084L103.956 144.61C103.153 143.515 102.524 142.648 101.881 141.646L99.9552 138.628C99.0512 137.213 98.4528 135.198 99.7577 133.724L98.9336 131.387C98.3459 133.9 98.5472 136.132 97.7266 138.69C97.1072 137.552 96.9684 136.653 96.7758 135.697L95.9698 136.268C97.161 132.259 96.8996 128.585 96.3254 124.613L93.6003 127.731L87.4529 121.031C85.8974 119.335 84.3614 117.456 82.5761 116.124C81.6017 115.398 79.6446 115.847 79.5527 113.983C79.5143 113.201 79.1947 112.074 78.5671 111.404L68.5838 100.773L69.2491 99.108C70.863 97.931 71.9406 96.7828 73.5505 95.1824C75.2476 96.9304 76.9549 98.6929 78.5321 100.543L81.8498 104.425C82.6384 105.35 83.4398 106.046 84.5187 106.71L83.9091 104.854L88.7642 99.9085C90.1898 101.558 92.0642 103.554 93.0004 104.906C90.8106 101.748 95.7662 110.713 93.5466 107.218L92.24 106.291L88.5753 110.208L87.0204 109.653C87.8178 111.034 88.7465 112.093 89.9062 113.383L95.9714 120.115C96.1457 120.308 96.7148 120.61 96.8491 120.704C96.9834 120.797 97.0785 119.969 96.9782 119.851L93.8913 116.263C95.9743 113.208 98.7125 111.955 99.6646 108.832L101.216 110.166C101.671 110.558 102.203 111.653 102.752 112.225C103.925 109.728 104.706 107.769 106.062 105.455C106.453 106.535 103.249 112.441 103.689 113.202C103.854 113.49 104.382 114.038 104.651 114.359C104.807 115.305 103.536 115.996 103.078 116.822C102.62 117.649 100.971 121.819 101.089 123.029C101.899 122.159 102.309 121.626 103.008 120.772C103.506 120.163 104.694 119.501 105.298 118.894C106.578 117.608 107.527 116.434 109.393 115.691L108.182 117.788L111.735 117.435C112.193 117.389 112.686 116.979 112.594 116.404C112.545 116.102 112.181 115.942 111.46 115.62C112.104 114.641 112.905 113.716 113.799 112.858C113.807 112.777 113.849 112.43 113.825 112.627L111.344 113.411C111.181 111.553 115.142 111.145 116.338 109.242C114.446 109.036 112.745 110.945 110.48 110.935C111.616 110.179 112.692 109.477 113.78 109.127C119.172 107.399 123.105 104.819 128.618 103.887C127.705 104.642 126.321 104.672 126.557 106.154L130.27 106.639C132.093 103.842 134.604 102.285 137.798 100.966C135.084 100.794 133.082 101.614 131.011 101.59C131.705 101.122 132.451 100.687 132.504 100.313L130.058 97.4073C128.685 96.8699 127.009 99.3869 126.202 97.951L123.234 92.6608L121.468 89.3795C120.735 88.0182 119.684 86.3629 118.798 85.2103C115.746 84.6382 116.112 81.8646 115.551 79.8666C114.286 75.3673 110.953 71.933 109.239 67.5096L114.427 64.5199C114.64 64.396 115.182 64.2942 115.409 64.3489C115.635 64.4037 116.066 64.9068 116.181 65.1225L120.138 72.5988C120.925 74.0844 121.868 75.555 122.798 76.966C123.366 75.9402 123.716 75.3667 124.425 75.0435L129.35 72.7977L132.605 79.035L125.652 82.2489C126.096 83.5381 126.571 84.5097 127.201 85.6214L130.513 91.4651C131.072 92.4495 132.135 93.7204 132.304 94.7294L132.722 97.2503L131.922 96.2787C131.791 96.1176 131.216 96.5707 131.076 96.7626L133.261 100.719L137.941 99.938C138.611 99.8267 149.048 97.82 147.746 99.7721L143.319 100.542C145.105 101.112 146.22 101.426 147.829 102.181L150.927 100.08L150.53 99.5131C149.941 98.6721 157.493 98.0833 158.316 97.8609L154.544 94.8824C155.114 94.862 155.833 94.9079 156.196 95.127L160.399 97.6738C163.568 98.0839 166.743 97.8004 169.734 99.3686C167.262 99.0156 164.853 98.593 162.281 98.7576C164.401 100.047 166.471 100.584 167.598 102.663L164.529 100.998L166.352 103.344L170.334 108.649C170.254 107.008 167.853 102.795 168.175 102.389C168.662 103.207 169.203 103.98 169.542 104.722L174.079 114.591C174.599 113.219 174.554 111.87 174.426 110.407C174.328 109.288 174.629 108.196 174.782 107.088C175.099 104.797 175.346 102.54 175.515 100.233C175.624 98.7694 175.759 97.4867 176.062 96.0106L177.697 96.267L178.233 95.0105C178.648 97.002 178.327 98.7149 177.923 100.237C177.399 100.196 176.525 100.324 176.444 100.647C176.364 100.971 176.378 101.626 176.32 102.028C175.671 106.502 176.667 106.794 177.035 110.672C177.105 111.403 177.056 111.802 177.701 112.661L178.414 110.956C178.777 111.149 179.352 111.867 179.238 112.184L178.819 113.359C182.087 118.945 179.586 116.889 180.457 119.512L181.97 124.065C181.535 124.738 181.169 125.655 181.45 126.329L183.673 131.656C185.062 134.985 186.447 138.238 188.074 141.566C189.511 138.249 189.266 134.841 191.329 131.933L189.08 142.57C188.932 143.277 189.142 144.149 189.445 144.886L190.451 142.228C190.486 144.244 189.954 145.758 190.413 147.589C191.608 146.243 190.782 144.676 192.286 143.471C192.057 145.517 191.739 147.383 191.331 149.334L189.488 158.147C189.33 158.897 188.959 159.749 188.7 160.57C193.183 161.913 192.269 164.699 195.471 167.697C195.534 166.483 195.283 165.954 195.034 164.846L198.282 169.164L197.127 166.715L198.335 166.595C198.206 165.435 198.78 164.166 199.953 164.035C201.5 163.862 201.693 166.902 201.084 167.714C200.821 168.065 199.978 168.327 199.518 168.403L203.08 173.634C203.717 171.448 203.915 169.597 204.352 167.59L205.471 162.44C205.682 161.468 205.935 160.591 206.215 159.593C206.505 161.921 206.092 163.796 205.806 166.174L204.657 175.73C204.632 175.943 205.128 176.661 205.211 176.523L205.611 175.86C205.719 175.68 206.16 175.093 206.241 175.285C206.302 175.434 206.451 175.792 206.498 175.947L206.648 176.413C207.397 178.752 207.329 173.61 207.168 172.462C207.007 171.314 208.636 170.99 209.329 171.241C212.474 172.38 208.675 175.383 208.18 181.051C208.138 181.528 209.485 181.332 210.357 181.169L209.708 183.332C209.622 183.616 209.668 184.534 209.956 184.552L211.156 184.626C212.209 184.691 211.489 186.34 211.672 186.93C212.054 188.158 213.044 189.375 213.597 190.563L211.573 188.007L210.578 187.855C210.501 186.956 210.271 186.503 209.727 185.999L207.671 184.101L206.97 188.442C206.723 189.973 208.44 191.212 209.167 192.462C210.026 193.941 207.684 195.26 209.597 197.976L213.803 203.948C218.674 198.143 220.367 192.689 224.402 186.62L223.759 189.4C225.481 186.922 226.634 184.215 227.775 181.517C227.27 181.358 226.471 180.898 226.577 180.586C226.705 180.211 227.523 180.223 228.254 180.376L230.133 175.275C230.256 174.936 230.326 174.081 230.383 173.569C230.236 173.231 228.988 173.119 228.613 173.331C226.551 179.625 223.712 184.907 220.286 190.65C219.706 190.724 219.612 190.703 219.933 190.403L223.202 183.173C224.864 179.495 226.064 175.679 227.406 171.706C226.276 171.345 225.858 171.016 225.573 170.103C225.334 169.346 225.481 168.059 226.228 167.738C229.718 166.233 225.714 164.89 229.408 160.906C231.218 156.341 231.287 151.359 231.462 146.4C231.76 137.979 230.319 128.56 227.878 120.536C226.74 116.796 225.269 113.38 223.855 109.776C223.802 109.644 223.809 109.277 223.874 109.149C223.939 109.02 224.333 108.766 224.412 108.884C225.12 109.963 225.259 110.971 225.655 111.687C226.558 113.323 227.521 114.78 228.161 116.524C230.611 123.206 231.258 127.488 233.796 134.429C234.551 129.379 230.216 113.424 228.034 108.894L225.303 103.225C220.878 94.0329 215.744 86.4637 208.502 79.2004C205.479 76.167 202.677 73.2385 199.106 70.9391L203.236 76.1198L197.233 70.5026L193.264 67.6296C192.504 67.0814 191.558 66.6278 190.882 65.9202C190.319 65.3322 189.356 64.5507 189.006 64.0195L186.226 59.8437L184.894 59.3177L185.307 60.8308L183.009 59.8032L185.247 65.2028C186.469 68.1543 187.849 70.5432 188.989 73.2807C189.847 75.3417 190.713 77.3107 191.665 79.299C192.135 80.2805 193.127 80.4639 194.028 80.4252C194.803 80.3919 195.411 81.2809 195.213 81.9002C195.073 82.3408 194.313 82.7037 193.889 82.8308C193.978 83.1694 193.95 84.0844 193.662 84.3438C193.415 84.5677 192.988 84.6136 192.445 84.6474C190.825 84.8929 197.018 92.7063 197.519 93.3342C198.151 94.1274 201.621 97.9533 200.187 98.6288C199.869 98.7788 198.929 98.6534 198.739 98.3459C196.119 94.1665 193.605 90.235 190.462 86.4796C189.695 85.5647 188.715 84.6801 187.437 84.6289C186.158 84.5777 188.69 86.951 187.67 87.5932L186.082 85.2738C184.758 84.2076 183.897 83.0765 183.115 81.3708L183.068 79.4061C182.44 79.2317 182.566 79.1221 183.223 78.8026L180.205 71.9442C178.679 68.4801 177.58 65.0383 175.702 61.6545L177.016 74.5599C177.047 74.867 177.111 75.6132 176.861 75.7199L175.974 76.0989L177.094 78.5545C176.414 77.7591 176.057 77.1312 175.588 76.2538L172.755 76.2579C170.896 74.9805 169.229 72.8001 167.775 70.9612C167.308 70.8512 166.783 70.7056 166.511 70.5789C166.292 70.4788 166.522 69.6208 166.425 69.3891C165.936 68.2003 164.745 66.5925 163.288 65.8321L164.462 68.5352L170.553 82.7841C170.726 83.1865 171.199 84.0112 170.922 84.2301C170.646 84.449 169.899 84.7189 169.544 84.7582L168.505 84.8788C168.288 84.9043 168.266 85.5589 168.244 85.7696L167.128 85.0014L164.356 85.751C163.62 85.9484 162.764 86.4177 162.075 86.9506C163.357 90.0804 164.702 90.836 166.307 94.263C165.492 94.5229 164.806 94.2086 164.365 93.5785C163.087 91.7643 161.985 90.2062 160.613 88.4983C160.15 87.9196 159.215 87.9205 158.674 87.8442C156.839 87.5866 155.216 86.1044 154.342 84.4993L153.188 82.3777C152.877 81.8045 152.359 80.2027 151.672 80.3768L147.087 81.5249L145.36 75.1746L146.861 74.6109C147.119 74.5139 147.672 74.2057 147.694 73.9631C147.715 73.7205 147.522 73.166 147.346 72.9246C142.906 66.9245 138.749 61.1058 134.665 54.8095L140.41 52.4554L145.222 58.91L154.609 71.8409C157.73 76.1385 157.44 73.311 158.985 75.9711C159.208 76.3567 159.895 76.6201 160.312 76.3388L156.176 66.424L149.047 50.1781C148.95 49.957 148.969 49.4568 149.103 49.4315C150.954 49.0995 153.391 54.6997 155.135 55.3493C154.405 53.1409 152.266 51.5507 150.998 49.0074C151.907 48.49 152.666 47.9802 153.313 47.8053L156.793 46.8533L165.645 58.0203L168.913 62.1611C168.557 56.5411 167.888 55.3802 167.546 49.9348C167.332 46.5343 165.352 42.1022 169.427 41.5716L169.433 41.0396C169.426 41.5142 171.158 38.8029 172.917 39.0048C177.106 39.4885 178.075 44.437 179.477 46.6448L181.164 49.3025C182.015 49.6204 183.386 49.8345 184.253 50.2636C190.44 53.3174 202.568 60.0782 206.013 65.8245C204.663 65.4696 201.461 63.2586 200.357 62.4967C197.241 60.3371 194.038 58.4807 190.804 56.5085C190.01 56.0243 189.458 55.7209 188.448 55.7128C188.95 56.4302 189.399 56.9362 190.025 57.361L198.813 63.3249C200.48 64.458 202.81 64.6075 204.488 65.7871C207.661 68.0226 210.732 72.0481 213.733 74.9351C213.921 75.1171 214.96 74.9645 214.929 75.195C214.903 75.3794 214.769 76.0588 214.876 76.2115L217.241 79.5899C219.407 82.6889 221.373 85.5528 224.03 88.2687L220.983 83.4638C224.146 85.4426 225.221 89.1648 227.123 90.3968L227.128 90.3975ZM97.7982 127.392L99.7407 120.99C98.8074 121.416 98.4312 121.441 97.6379 121.061L97.7345 122.417L97.7712 124.739C97.7859 125.631 97.4462 126.498 97.7965 127.39L97.7982 127.392ZM159.278 104.935C161.92 105.479 163.457 106.906 165.486 108.389C164.203 105.401 161.963 103.235 158.662 102.491C156.053 101.902 152.81 102.413 150.594 104.478C150.004 105.028 149.547 106.042 149.967 106.358C150.62 105.738 151.485 105.111 151.916 105.325C151.872 106.371 151.812 107.023 152.053 107.729L153.851 113.014C154.329 114.424 152.79 116.419 151.593 116.737C152.194 115.121 153.211 113.632 152.307 112.145C152.287 113.225 151.955 114.552 150.912 115.141C150.449 115.404 149.476 114.828 148.805 114.51L149.779 116.386C148.904 115.734 147.492 114.801 147.035 113.699L144.2 106.875C146.558 109.077 146.651 112.017 148.434 114.532L147.716 112.496L145.7 106.568L147.183 107.376C145.764 103.482 140.07 104.078 136.711 105.393C135.317 105.94 134.126 106.839 133.197 108.002C132.336 109.078 132.338 110.68 133.704 111.27C134.123 109.665 135.029 108.525 136.533 108.274L133.893 112.246L135.143 115.373C135.683 116.721 135.868 117.78 136.272 119.487L136.872 117.145C137.75 118.911 136.932 121.08 135.522 122.053L135.829 120.216C135.166 121.038 134.21 121.556 133.372 120.983L131.311 119.577L127.957 113.224L124.262 113.312C125.314 112.673 126.211 112.587 127.508 112.195C126.077 111.828 124.847 111.945 123.269 111.862C124.387 111.003 125.173 111.869 126.855 110.763L128.87 111.949L129.432 110.512C125.433 107.732 118.736 111.475 116.763 114.449C115.664 116.104 116.078 117.392 116.807 118.98C118.114 121.832 119.307 124.717 120.381 127.659C120.775 128.742 120.793 130.134 122.326 130.162C122.606 130.959 123.036 132.038 123.557 132.912L124.579 134.634C124.937 134.398 125.278 134.069 125.387 134.209L125.949 134.925C126.124 135.149 126.885 134.688 127.045 134.446C127.204 134.205 127.175 133.792 127.151 133.299L127.114 132.513C127.109 132.393 127.579 132.353 127.647 132.454L128.109 133.17C128.35 133.547 129.604 132.892 129.879 132.465C130.096 132.125 130.022 131.719 130.141 130.693L131.164 131.519C131.664 131.599 133.072 130.984 133.12 130.409L133.238 129.055L134.404 129.936C134.457 129.975 136.388 129.608 136.458 128.939L136.597 127.57C137.529 128.575 137.668 128.832 138.831 128.31C139.461 128.028 139.532 127.527 139.63 126.273L140.88 127.352C140.996 127.451 142.735 126.949 143.001 126.322C143.082 126.128 143.046 125.221 143.218 125.343L144.261 126.09C144.457 126.23 146.356 125.558 146.403 125.29L146.619 124.077L147.789 124.927L150.41 124.251L150.504 122.755C151.946 124.613 154.481 122.791 154.476 122.805L154.882 121.528L155.771 122.405C156.08 122.712 156.978 122.628 157.453 122.491C157.871 122.371 158.284 121.569 158.503 121.123C158.994 121.52 159.609 122.011 160.03 122.055C160.451 122.1 161.154 121.741 161.342 121.407L161.777 120.64C162.14 120.003 161.834 121.315 162.822 121.87C162.965 121.95 163.506 121.655 163.446 121.502L163.15 120.734C162.478 118.99 163.037 116.937 162.823 115.155C162.58 113.137 159.423 112.765 157.61 112.564C157.929 110.932 161.287 112.807 161.95 112.331C160.518 111.25 159.141 110.975 157.617 110.392C159.367 109.42 161.724 111.709 162.748 110.891C162.917 110.755 162.867 109.844 162.683 109.709L158.654 106.823C160.613 106.908 161.967 108.083 163.492 108.947C162.496 106.864 159.922 106.268 159.277 104.928L159.278 104.935ZM108.627 132.954C108.733 135.447 108.363 137.075 108.939 139.243L113.972 133.563C115.736 131.573 119.116 132.294 121.528 133.263L120.566 129.791L118.88 130.993C113.471 127.492 115.936 122.956 111.09 123.525C112.012 122.84 112.774 122.84 114.162 122.707L113.504 121.174C109.734 119.613 101.842 126.421 102.519 129.905C103.607 128.389 104.489 127.013 105.991 125.914C105.254 128.023 103.126 129.282 103.2 131.693C104.177 130.091 104.781 128.488 105.934 127.272C107.693 125.42 109.886 123.956 112.56 124.33C109.054 125.604 106.192 127.857 104.51 131.231C104.141 131.973 104.221 132.929 104.724 133.519L105.341 131.635L105.875 133.28L106.737 131.936L106.995 134.916L108.627 132.954ZM129.816 113.273C129.749 113.111 129.173 112.712 129.03 112.744C128.886 112.776 128.558 112.89 128.642 113.016L129.036 113.61L131.798 118.184L129.817 113.276L129.816 113.273ZM106.714 141.285C106.79 141.441 107.597 141.31 107.531 141.179L107.284 140.687L103.481 133.223C103.375 133.835 103.432 134.727 103.766 135.4L106.711 141.287L106.714 141.285ZM113.537 153.707L116.007 153.939C116.041 153.575 116.04 153.207 115.91 153.063L115.285 152.371C117.809 152.767 118.83 149 118.494 147.762L117.062 149.184L119.493 142.349C120.026 140.852 119.919 139.476 119.527 137.915C120.238 139.173 120.64 140.434 120.992 141.747C121.378 139.816 121.082 137.852 119.596 136.436C114.884 131.945 111.726 143.565 109.325 145.51L110.362 142.859L103.466 150.859C105.752 153.845 109.018 155.935 112.745 156.197L112.706 157.333L114.353 156.559L113.688 155.852L115.126 155.079L113.532 153.7L113.537 153.707ZM110.015 157.26C107.391 155.757 104.957 154.607 103.194 151.97C101.288 153.489 107.854 158.094 110.015 157.26ZM155.972 135.392L155.366 132.721C155.902 133.198 157.022 134.343 157.09 135.039L157.405 138.232L160.181 136.978L159.832 134.564C159.754 134.03 160.999 133.364 161.454 133.002C161.42 132.072 160.875 131.114 160.197 130.48C160.665 127.357 161.836 128.05 161.775 125.059L161.738 123.293C161.063 122.169 159.618 123.412 158.833 123.457C157.749 123.518 155.928 122.944 155.482 124.484C153.947 123.256 152.563 124.932 151.465 125.123C150.094 125.361 148.72 125.788 147.298 126.315L143.893 127.575C142.802 127.978 141.621 128.318 140.541 128.915C139.707 129.376 138.052 128.823 137.913 130.538C136.393 129.548 135.444 131.18 134.453 131.657C133.462 132.134 131.544 131.805 131.528 133.644C130.676 133.366 129.964 133.432 129.511 133.785C129.169 134.05 128.9 134.733 128.857 135.131L130.518 135.11C130.356 135.92 129.582 136.296 128.767 136.282L128.545 135.285C127.702 135.272 126.815 135.882 126.776 136.632L128.009 136.577C128.013 137.011 127.929 137.659 128.127 137.777L128.962 138.268L128.2 138.748C128.095 138.814 128.492 139.299 128.62 139.379L129.942 140.183C130.134 140.349 130.418 140.745 130.624 140.724C130.829 140.703 131.443 140.631 131.348 140.643C131.317 140.083 131.291 139.582 131.313 139.985L132.987 141.359C135.204 143.18 132.918 143.181 137.683 144.724C140.708 144.191 143.59 143.401 146.6 142.453C146.352 140.47 145.163 139.169 145.381 136.957C146.33 137.885 147.471 142.537 148.184 141.853L148.716 141.339C150.858 140.988 154.297 140.036 155.984 138.23C156.479 137.699 156.161 136.224 155.972 135.396L155.972 135.392ZM123.853 143.428C123.853 142.268 123.246 140.447 122.713 139.401L122.57 143.85C122.381 144.137 123.851 143.787 123.853 143.428ZM120.699 174.01L119.786 172.638L116.968 168.449L114.787 169.518C114.38 169.319 114.186 168.768 114.829 168.871C115.43 168.569 116.222 168.101 116.37 167.724C116.517 167.346 116.029 166.376 115.64 166.454C115.045 166.574 114.176 166.721 113.454 166.706C113.763 166.146 114.471 165.781 115.028 165.55C115.384 165.398 114.975 164.189 114.596 164.086C113.251 163.724 113.436 164.494 112.609 163.761C112.497 163.663 112.958 163.413 113.102 163.351L114.219 162.887L113.458 160.372L112.235 160.426C112.066 160.432 112.217 159.709 112.016 159.691C109.691 159.48 104.5 156.885 102.68 154.605C102.139 155.292 102.509 156.3 103.21 156.929C105.625 159.095 108.418 160.195 111.714 160.585C108.427 161.951 105.563 160.208 102.761 158.182C106.006 164.575 109.69 170.569 113.572 176.649C114.783 177.383 115.91 178.003 117.31 178.63L113.01 173.175C111.982 171.872 110.989 170.592 110.413 169.203L111.836 169.771C111.185 168.541 110.85 167.619 111.172 166.635L112.237 167.377C112.352 167.459 111.951 167.903 111.955 167.933C113.371 168.837 112.781 169.861 115.319 170.865C118.98 172.314 117.006 172.656 120.695 174.009L120.699 174.01ZM119.348 152.665L120.614 149.124L117.094 154.171C117.609 154.287 118.415 154.293 118.719 154.047C118.98 153.836 119.179 153.141 119.349 152.667L119.348 152.665ZM171.056 120.11C171.703 118.718 171.272 117.391 170.332 116.409C170.513 117.777 170.733 118.891 171.056 120.11ZM117.866 156.021L117.635 155.165C116.758 155.002 115.796 155.397 115.649 156.461L117.87 156.022L117.866 156.021ZM117.839 157.416C116.751 157.178 115.925 157.174 115.118 157.255L114.702 158.786C116.021 158.292 116.659 158.047 117.837 157.414L117.839 157.416ZM132.897 145.446L132.823 146.119C132.816 146.181 132.676 146.229 132.622 146.187L132.127 145.811C130.959 144.921 131.903 147.9 136.852 147.715C136.937 147.11 135.854 147.327 135.531 147.123L132.899 145.448L132.897 145.446ZM121.176 158.814C118.63 159.867 116.875 160.337 114.471 160.515C114.575 161.312 114.867 162.235 115.279 162.86C117.829 162.179 120.02 160.83 121.176 158.814ZM147.095 144.909L142.709 145.893C141.079 146.257 139.348 146.235 137.758 146.43L138.612 147.815C138.946 147.946 150.402 145.805 147.095 144.909ZM172.368 126.285C173.49 124.762 173.62 122.962 172.449 121.836C172.057 123.49 171.744 124.807 172.368 126.285ZM118.594 163.771L119.292 162.174L115.469 163.735L117.446 167.187C119.115 165.465 120.752 163.94 121.222 161.433L118.594 163.771ZM169.167 126.991C168.264 127.295 167.553 128.338 167.427 129.329L167.235 130.865C168.487 129.93 169.297 128.883 169.167 126.991ZM123.828 167.244L121.883 168.681C123.052 166.187 124.261 164.174 124.556 161.573C122.564 164.34 120.968 166.606 118.018 168.216C118.901 170.08 119.818 171.456 121.278 172.991C122.502 170.993 123.365 169.301 123.828 167.244ZM175.393 128.067L174.569 126.318L173.473 131.485C174.361 130.328 174.749 129.439 175.395 128.066L175.393 128.067ZM164.812 138.283C167.694 136.56 168.951 134.033 169.018 131.162C168.365 131.746 167.449 132.553 167.18 133.139L164.812 138.283ZM129.77 176.385L132.119 177.109C133.842 177.64 135.218 177.919 136.998 177.392L140.206 176.438C139.392 171.027 137.049 166.123 133.345 162.132L135.127 168.86L131.789 162.355C131.147 161.103 130.47 159.945 129.561 159.075C130.895 163.704 130.61 168.165 129.774 172.456C129.423 169.596 129.221 167.364 128.65 164.929L127.385 169.239C127.311 169.489 127.512 169.998 127.613 170.101L126.692 173.614L126.17 172.477L125.108 174.467L129.766 176.38L129.77 176.385ZM157.427 141.348L153.07 142.961C152.336 143.233 151.719 143.503 151.491 144.312L155.889 142.746C156.637 142.479 157.51 142.323 157.429 141.346L157.427 141.348ZM170.626 144.833L173.345 144.692L166.827 146.638C166.694 146.676 166.298 146.874 166.318 147.005C166.337 147.136 166.489 147.59 166.426 147.706L164.79 150.791L170.307 151.356L168.818 151.943L171.062 152.662L165.575 152.618C165.004 152.613 163.627 152.761 163.325 153.279C161.79 155.925 160.743 158.804 159.629 161.722C159.62 158.846 160.591 156.338 161.186 153.542L159.043 155.902L159.476 154.374C159.364 154.168 158.54 153.863 158.189 153.925C157.889 153.976 157.617 154.654 157.562 154.906C157.338 154.741 156.778 154.256 156.551 154.386L155.811 154.81C155.224 154.625 154.46 154.773 154.009 155.227L152.879 155.527C155.005 158.105 159.494 162.571 159.788 166.147L156.553 162.12L157.792 165.056L153.896 160.868C152.769 159.656 151.453 158.757 149.72 158.273C149.593 159.066 149.878 159.423 150.287 160.285L147.653 159.236L151.135 161.985C149.774 161.76 148.867 161.196 147.948 160.658L147.9 161.74C147.195 161.652 146.426 161.605 145.999 161.475L142.734 160.474L135.18 157.774L138.293 162.106C138.452 162.328 138.197 163.264 138.079 163.209C136.358 161.102 135.092 158.717 132.592 157.56C136.911 162.402 139.866 167.773 141.634 173.882C141.862 174.672 142.346 175.189 142.992 175.311C142.81 174.561 142.646 173.765 142.861 173.138C143.445 171.429 144.898 178.404 145.185 178.272C147.868 177.426 149.43 175.783 151.69 174.472C152.384 174.069 153.985 174.928 154.526 173.534C156.396 168.71 155.25 169.812 156.567 165.911C156.526 168.442 155.989 170.476 155.732 172.924C156.504 173.543 157.899 171.786 158.337 172.096L158.926 172.515L161.061 166.671L160.536 171.698C164.176 167.958 166.643 163.872 169.453 159.43C169.042 162.929 165.62 167.673 163.83 170.703L165.655 169.497C164.677 171.753 163.281 173.193 161.881 174.975C158.379 179.439 158.983 178.124 155.399 181.977C159.896 179.738 165.253 172.817 168.226 168.784C169.251 167.395 170.492 166.269 171.799 165.123L170.399 168.823L175.065 164.801C174.34 166.107 173.631 166.982 172.815 168.106C173.728 167.46 174.502 166.766 175.21 165.992L177.164 163.851C175.686 164.392 174.501 165.051 173.07 164.164C171.956 163.471 172.442 161.173 171.866 161.211L170.918 161.276C173.799 156.864 175.769 152.007 177.117 146.829L175.676 143.172C173.775 143.651 172.4 143.992 170.642 144.819L170.626 144.833ZM161.922 138.901C161.252 139.074 160.95 139.921 161.267 140.364C163.358 139.503 164.456 137.589 165.059 135.545C162.682 136.711 163.83 138.407 161.92 138.903L161.922 138.901ZM124.346 174.137C126.648 170.199 127.821 166.391 127.149 162.021C125.697 166.09 124.404 169.495 122.082 173.049L124.347 174.139L124.346 174.137ZM241.366 144.384C241.907 138.971 241.201 133.817 240.552 128.438C238.361 115.612 234.831 107.682 228.094 96.6839C227.478 95.6745 226.917 94.6663 226.158 93.908C231.676 103.975 234.765 113.008 237.68 123.908C237.862 124.586 237.851 125.06 238.772 125.169C240.21 131.447 240.727 137.771 241.365 144.382L241.366 144.384ZM175.791 132.365C176.629 131.767 176.56 130.786 175.815 129.96L174.155 133.532L175.791 132.365ZM182.353 148.855C183.688 152.789 183.194 156.473 181.591 160.307C182.555 159.491 183.721 157.953 183.718 156.741C183.712 154.463 184.15 152.025 183.592 149.851C182.779 146.679 181.446 143.65 180.193 140.591L176.881 132.515C175.883 133.575 175.255 134.535 174.696 135.666L176.587 134.198L175.609 136.299C175.619 137.556 176.823 138.905 177.715 139.585C177.901 139.985 178.19 140.542 178.482 141.041L181.043 145.431C181.588 146.364 181.942 147.665 182.346 148.856L182.353 148.855ZM188.001 142.716L183.977 134.214C183.475 133.153 182.833 132.075 182.194 130.904L181.569 132.891L187.152 146.094L188.001 142.711L188.001 142.716ZM175.004 141.378L172.035 142.399C170.309 142.993 168.727 143.343 167.019 144.448L170.091 144.012L175.213 142.543C175.529 142.452 175.229 141.564 175.004 141.378ZM174.074 140.292L171.145 141.942L174.357 141.072C174.509 141.031 174.907 140.388 174.748 140.387C174.642 140.386 174.166 140.238 174.077 140.29L174.074 140.292ZM133.826 181.693L128.041 180.116C127.581 179.991 126.602 180.387 126.407 180.712L133.882 182.582C134.067 182.63 134.736 182.1 134.593 182.019C134.45 181.939 134.152 181.782 133.824 181.695L133.826 181.693ZM188.969 144.96C188.592 145.762 188.049 148.247 188.672 149.22C189.114 149.185 189.842 143.102 188.969 144.96ZM190.447 147.746L189.778 147.488C189.616 148.88 189.502 149.812 189.506 151.225C190.231 150.259 190.279 149.106 190.444 147.748L190.447 147.746ZM150.651 181.798C149.443 182.59 145.014 183.145 145.067 183.526L145.188 184.395C147.318 183.872 149.068 183.225 150.65 181.802L150.651 181.798ZM187.947 158.923C188.493 157.381 188.6 156.234 188.763 154.755C188.347 154.966 187.767 155.773 187.795 156.256L187.947 158.923ZM142.352 189.805C142.162 189.57 141.105 189.938 140.947 190.16L142.228 191.943C142.583 191.377 142.764 190.315 142.351 189.803L142.352 189.805ZM183.939 162.318L179.354 166.649C176.833 168.568 174.296 170.753 171.243 171.746C170.83 171.88 170.002 171.846 169.708 172.211L166.084 176.681L170.973 173.713C172.904 172.541 183.928 164.598 183.941 162.317L183.939 162.318ZM180.735 173.49L183.897 171.507C185.292 170.631 187.343 170.698 188.618 169.501C185.989 169.461 183.529 170.363 181.352 171.757L169.141 179.582C166.188 181.472 163.333 183.295 160.166 184.819L154.354 187.617C152.647 188.44 150.849 189.049 149.088 189.697C147.957 190.113 146.494 189.686 145.985 191.537L149.132 190.728C150.059 190.491 151.037 189.885 151.919 189.571C154.892 188.505 157.662 187.442 160.566 186.132C161.584 185.672 162.334 184.948 163.307 184.404L168.654 181.404C167.669 181.956 176.431 176.381 175.952 176.713C177.527 175.61 178.978 174.587 180.733 173.488L180.735 173.49ZM234.578 156.173C235.818 149.841 235.009 143.017 234.329 136.465L232.989 133.849L233.498 139.398C233.987 144.744 233.462 149.999 233.095 155.37C233.066 155.784 233.187 156.255 233.377 156.444C233.567 156.632 234.513 156.508 234.58 156.176L234.578 156.173ZM157.78 205.22C157.776 205.137 158.246 204.916 158.327 204.898C158.409 204.881 158.174 204.674 158.093 204.661L157.685 204.604L156.76 204.475C156.617 204.456 156.752 203.82 156.701 203.675L154.1 199.295C153.424 198.158 152.282 196.996 151.475 196.134L150.586 196.2C150.453 196.211 150.605 195.808 150.699 195.717L151.14 195.299L148.735 194.86L150.464 193.797L148.314 194.331L153.534 202.143L159.529 212.093L161.724 211.235C160.812 211.144 159.914 211.115 159.436 210.861C159.242 210.759 159.002 209.793 159.215 209.72L160.433 209.304L158.382 207.659L159.102 207.129C158.467 206.805 157.811 205.805 157.782 205.223L157.78 205.22ZM175.926 177.944C171.595 180.348 173.786 179.515 170.564 181.5L166.4 184.069C163.93 185.593 161.371 186.688 159.138 188.338C162.227 186.941 165.092 185.57 167.923 183.852L173.751 180.316C175.799 179.073 177.827 177.982 179.22 176.118L175.926 177.944ZM189.57 190.849C190.162 191.807 190.592 192.643 190.961 192.685L192.928 192.261L195.243 187.556C195.822 186.377 196.808 184.751 197.13 183.551L195.344 179.514C195.09 178.94 194.544 178.058 194.122 177.693C193.072 177.431 192.458 176.745 192.354 175.167L191.116 176.984L191.028 175.207L190.202 176.865C189.812 177.236 188.468 176.4 188.212 175.879C187.881 176.093 187.451 176.506 187.222 176.384L186.483 175.995L186.348 176.848C186.32 177.02 185.755 177.054 185.561 177.035L186.097 175.68L184.682 176.017C182.436 176.55 184.137 175.713 182.166 175.973C182.06 175.986 182.351 176.248 182.454 176.292L183.927 176.914C183.641 177.346 183.337 178.006 183.165 177.863L182.211 177.079L182.36 178.236L181.422 176.313L177.653 178.631C173.081 181.443 169.866 184.145 165.378 186.608L156.68 191.388C156.833 191.653 157.179 192.075 157.403 192.07L158.308 192.047L157.572 193.028C157.438 193.209 158.242 193.784 158.313 194.015C159.006 196.217 160.978 197.382 159.056 197.334C158.284 197.315 158.834 194.47 156.278 194.941C156.489 195.087 157.095 195.623 156.967 195.853L156.583 196.563C156.902 197.142 157.197 197.708 157.406 198.182C157.788 199.053 160.957 203.361 161.334 203.364L162.632 203.365L162.273 202.291C162.219 202.126 162.78 202.019 162.895 202.152L163.335 202.667C163.962 203.402 164.668 203.875 165.562 204.264L164.887 204.553C162.747 205.469 169.095 204.723 168.625 205.244C167.421 205.686 166.697 205.864 165.606 206.437C166.756 206.397 167.655 205.937 168.732 205.722L176.847 204.102L175.126 205.589C175.964 205.605 176.705 205.451 177.37 205.076L184.881 200.828L188.868 198.289C189.631 197.802 189.983 197.169 190.406 196.447L191.981 193.751L189.644 193.007C188.944 192.786 187.89 192.978 186.879 192.819L189.569 190.853L189.57 190.849ZM191.58 170.136L191.837 171.416C194.803 173.589 196.973 176.307 198.737 179.8C198.978 179.674 199.452 179.155 199.53 178.833C199.733 177.968 194.634 170.216 191.58 170.136ZM195.476 177.46L198.011 182.41C199.093 182.635 195.391 175.775 195.476 177.46ZM189.894 199.626C187.234 201.073 184.803 202.595 182.21 204.374C181.659 204.175 181.533 204.14 181.98 204.969C184.632 203.036 188.075 203.084 189.892 199.624L189.894 199.626ZM178.009 213.235L174.844 214.534C172.601 215.906 170.232 216.756 167.565 217.503C167.642 219.862 177.501 213.609 178.009 213.235ZM208.842 209.495L212.948 204.93L208.284 198.541C208.115 198.31 207.389 197.861 207.179 197.758L203.82 201.259C206.563 206.833 203.944 203.769 208.84 209.497L208.842 209.495ZM201.296 224.303L197.361 226.625C195.381 227.795 193.433 229.068 191.241 229.997L178.194 235.52L177.551 237.278C186.869 234.203 193.93 229.927 201.296 224.303Z" fill="#6374A2"/>
<path d="M122.458 125.663C124.535 123.899 125.227 121.344 127.946 120.528C125.071 123.303 123.105 125.89 122.071 129.68L120.81 126.279C119.708 123.309 118.111 120.671 117.581 117.553L121.505 126.277C122.531 123.976 123.419 121.913 125.646 120.766C124.392 122.337 123.27 123.845 122.457 125.661L122.458 125.663Z" fill="#6374A2"/>
<path d="M135.178 122.897C132.781 123.961 129.539 119.434 128.854 117.703L127.37 114.701C130.573 118.641 129.279 119.905 135.18 122.895L135.178 122.897Z" fill="#6374A2"/>
<path d="M119.548 114.229L116.71 117.484C117.012 115.94 117.935 114.546 119.548 114.229Z" fill="#6374A2"/>
<path d="M186.836 197.184L185.868 198.338L184.7 197.145C184.432 196.87 184.716 196.007 184.964 195.5C185.237 194.941 186.141 194.9 186.662 195.269C187.183 195.637 187.269 196.501 186.841 197.184L186.836 197.184Z" fill="#6374A2"/>
<path d="M118.573 131.684C115.647 130.317 114.365 128.527 113.1 125.368L118.573 131.684Z" fill="#6374A2"/>
<path d="M88.6344 135.51L80.5155 132.112L79.7957 132.616C79.6333 132.729 79.3966 131.638 78.932 131.454L56.6059 122.513L52.376 120.732L56.5826 114.923L79.6586 124.322L92.0775 129.694C91.8323 130.71 91.3649 131.337 90.5892 132.375L92.3913 136.311C91.4423 135.44 90.829 134.678 90.0385 133.74L88.6361 135.513L88.6344 135.51Z" fill="#6374A2"/>
<path d="M83.9373 121.271C85.8121 123.252 87.5984 124.808 89.2976 127.075C70.771 119.536 75.7706 122.565 61.4935 108.577C63.2247 106.36 64.2655 104.999 65.9951 103.07C66.5692 102.874 67.4722 103.993 67.8582 104.394L76.1462 113.038L83.9356 121.269L83.9373 121.271Z" fill="#6374A2"/>
<path d="M84.9729 94.4115L85.6008 95.3082L84.4385 94.6232L79.128 99.7538L74.6189 94.8822C74.4772 94.324 75.4091 93.4729 75.8135 93.0705L81.2849 87.6539C82.3769 88.6048 83.1907 89.5194 84.1497 90.5382L85.9676 92.469L84.9704 94.4132L84.9729 94.4115Z" fill="#6374A2"/>
<path d="M127.127 69.8251C125.907 69.2021 125.57 68.4777 124.682 67.463L122.864 68.5486L119.717 69.6507L116.342 63.5154L125.061 59.4469L128.271 65.5572L125.641 66.8715L127.123 69.8244L127.127 69.8251Z" fill="#6374A2"/>
<path d="M69.0705 66.3516L69.3129 66.1819L70.4657 66.5232C69.9449 67.1877 69.5913 67.6989 69.0701 68.2698C62.3476 75.6496 56.8671 83.8645 52.9484 92.752C54.2602 91.6493 54.5725 90.3363 55.3996 89.2479L60.4098 82.6516C62.244 80.2368 64.1284 78.0433 66.1488 75.7654L68.9294 72.6338L74.0587 66.579C78.0819 61.8332 83.2111 58.0684 88.5116 54.765L93.0677 51.9252C98.3059 48.6618 103.697 46.1476 109.507 44.0621C117.739 41.1079 125.989 39.4016 134.679 38.6119L137.375 38.3672C139.681 38.1578 138.312 35.9812 139.773 35.0662C140.492 34.6173 142.513 34.6613 143.813 35.5427C148.653 38.8136 145.358 41.5105 147.905 41.8257L155.643 42.7823C158.901 43.1846 161.981 43.4368 163.838 45.7163C161.749 45.7813 160.122 45.042 158.318 44.5965L155.435 43.8885C154.548 43.6683 153.286 43.6816 152.634 44.1487L152.251 46.2266L151.678 44.5834L150.751 45.7562L151.649 45.8784C151.797 45.898 151.617 46.3996 151.533 46.3678L149.731 46.2646L148.995 45.8374C148.837 45.7458 148.257 46.1407 148.09 46.3046C146.472 47.8928 145.392 46.8399 142.348 47.7393L146.643 53.7755C146.8 53.9985 147.292 54.4337 147.435 54.5971C147.579 54.7604 147.227 55.1403 146.82 55.5698L140.977 47.7099C128.819 47.291 117.021 49.5422 105.667 53.8983C103.156 54.8618 100.98 56.169 98.6229 57.3573L92.5715 60.4135C90.517 61.4512 88.3745 62.3012 86.6861 63.841L82.7538 67.4324L79.4468 70.5137C70.0174 79.2941 62.6254 89.736 57.7814 101.738C56.2901 105.437 54.782 110.267 53.7073 113.7C53.6109 114.006 52.9456 114.453 52.8845 114.294C52.2495 112.691 53.5272 110.167 53.2817 108.548C52.0695 111.387 51.0158 113.977 50.2779 116.776L48.8145 122.341L47.2598 123.448L45.2795 124.86C45.0081 125.05 42.3797 126.547 41.9892 126.665C40.5472 127.097 42.3811 117.166 42.5344 116.441C46.2122 99.1374 53.0463 83.9683 64.9578 70.7375C66.3633 69.1754 67.8821 67.8989 69.0705 66.3516Z" fill="#6374A2"/>
<path d="M120.102 106.138C119.661 105.75 119.138 105.245 118.563 104.672L117.987 104.097C117.833 103.945 117.554 104.732 117.449 104.896L115.49 105.864C115.165 105.668 114.6 104.825 114.237 104.281L106.479 92.6912L102.661 87.2637L99.9552 83.4515C100.385 82.5076 101.357 81.7656 102.295 81.1959L105.733 79.1022C106.409 79.3084 106.783 80.3069 107.191 80.9206L119.235 99.102C120.175 100.521 120.915 101.939 121.598 103.266L119.876 102.348L120.893 104.493L119.019 102.981L120.104 106.136L120.102 106.138Z" fill="#6374A2"/>
<path d="M108.187 76.2974L102.142 80.4254L96.0526 84.5733L96.35 86.0915L94.9165 85.4628L97.2001 89.993C96.1383 89.1472 95.6544 88.3014 94.9053 87.2006C94.4697 86.563 93.61 86.5473 92.924 86.2692C91.4387 85.6695 90.6809 83.5454 89.8019 82.2178C89.1626 81.2533 89.1317 80.4767 90.0636 79.8423L94.2066 77.0316C97.2157 74.9896 99.9695 72.516 103.196 70.8056L107.81 68.3584L111.502 74.0482L109.027 75.7742C110.307 77.8757 111.671 80.0261 112.965 82.559C110.925 80.7039 110.082 78.8748 108.187 76.2974Z" fill="#6374A2"/>
</g>
<defs>
<clipPath id="clip0_292_869">
<rect width="200" height="210.654" fill="white" transform="translate(0 114.715) rotate(-35)"/>
</clipPath>
</defs>
</svg>
