<svg width="112" height="91" viewBox="0 0 112 91" fill="none" xmlns="http://www.w3.org/2000/svg">
<path d="M94.3467 34.3239C59.2229 42.7973 27.1472 61.6641 3.24879 88.4952C2.60914 89.2184 1.37559 90.5317 0.453899 89.9374C-0.532793 89.3019 0.349878 86.3091 0.665475 85.2266C1.73568 81.5405 3.78649 78.3227 6.35117 75.4779C27.6397 51.8592 54.5507 33.9235 84.8811 23.5561C79.8245 21.0989 75.1595 18.493 70.7352 15.3191C70.264 14.9814 70.2564 14.358 70.1281 13.8239C70.1375 9.97468 74.3805 2.55105 77.3753 0.33661C77.6841 0.108534 78.377 -0.151346 78.7498 0.10849C88.3633 6.81987 99.0655 11.6457 110.468 14.4634C112.007 14.8436 110.474 18.7655 110.051 19.6767C108.696 22.5967 107.302 25.5612 105.264 28.0855C103.488 30.2855 101.596 32.1952 99.982 34.5128C97.7987 37.648 96.0035 40.8788 94.7498 44.4968C93.7091 47.4968 92.1935 51.0088 90.0129 53.2916C89.4501 53.8797 87.8851 55.1887 87.1402 54.7011C86.9598 54.5835 86.7937 54.2362 86.6778 53.9523C86.5985 52.7861 86.7703 51.7743 87.0804 50.6116C89.0265 45.0344 91.4395 39.697 94.3497 34.3205L94.3467 34.3239Z" fill="white"/>
</svg>
