<?xml version="1.0" encoding="UTF-8"?>
<svg id="Ebene_1" xmlns="http://www.w3.org/2000/svg" version="1.1" viewBox="0 0 432.7 432.7">
  <!-- Generator: Adobe Illustrator 30.2.1, SVG Export Plug-In . SVG Version: 2.1.1 Build 1)  -->
  <defs>
    <style>
      .st0 {
        fill: #fff;
      }
    </style>
  </defs>
  <polygon class="st0" points="0 0 0 29.8 14.9 29.8 14.9 14.9 29.8 14.9 29.8 0 14.9 0 0 0"/>
  <polygon class="st0" points="14.9 59.7 14.9 29.8 0 29.8 0 59.7 0 104.4 14.9 104.4 29.8 104.4 29.8 89.5 14.9 89.5 14.9 59.7"/>
  <rect class="st0" y="119.4" width="14.9" height="14.9"/>
  <rect class="st0" y="164.1" width="14.9" height="14.9"/>
  <rect class="st0" y="194" width="14.9" height="29.8"/>
  <rect class="st0" y="238.7" width="14.9" height="14.9"/>
  <rect class="st0" y="268.6" width="14.9" height="14.9"/>
  <rect class="st0" y="298.4" width="14.9" height="14.9"/>
  <polygon class="st0" points="0 328.2 0 432.7 14.9 432.7 29.8 432.7 29.8 417.8 14.9 417.8 14.9 343.2 29.8 343.2 29.8 328.2 14.9 328.2 0 328.2"/>
  <rect class="st0" x="14.9" y="134.3" width="14.9" height="29.8"/>
  <rect class="st0" x="14.9" y="253.6" width="14.9" height="14.9"/>
  <polygon class="st0" points="29.8 0 29.8 14.9 44.8 14.9 59.7 14.9 59.7 0 44.8 0 29.8 0"/>
  <polygon class="st0" points="29.8 29.8 29.8 59.7 29.8 74.6 44.8 74.6 59.7 74.6 59.7 59.7 59.7 29.8 44.8 29.8 29.8 29.8"/>
  <polygon class="st0" points="29.8 89.5 29.8 104.4 44.8 104.4 59.7 104.4 59.7 89.5 44.8 89.5 29.8 89.5"/>
  <polygon class="st0" points="29.8 328.2 29.8 343.2 44.8 343.2 59.7 343.2 59.7 328.2 44.8 328.2 29.8 328.2"/>
  <polygon class="st0" points="29.8 358.1 29.8 402.8 44.8 402.8 59.7 402.8 59.7 358.1 44.8 358.1 29.8 358.1"/>
  <polygon class="st0" points="29.8 417.8 29.8 432.7 44.8 432.7 59.7 432.7 59.7 417.8 44.8 417.8 29.8 417.8"/>
  <rect class="st0" x="44.8" y="119.4" width="14.9" height="29.8"/>
  <polygon class="st0" points="44.8 208.9 29.8 208.9 29.8 313.3 44.8 313.3 44.8 283.5 59.7 283.5 59.7 238.7 44.8 238.7 44.8 223.8 59.7 223.8 59.7 164.1 44.8 164.1 44.8 208.9"/>
  <polygon class="st0" points="74.6 59.7 74.6 29.8 59.7 29.8 59.7 59.7 59.7 74.6 74.6 74.6 74.6 59.7"/>
  <rect class="st0" x="59.7" y="298.4" width="14.9" height="14.9"/>
  <rect class="st0" x="59.7" y="358.1" width="14.9" height="44.8"/>
  <polygon class="st0" points="89.5 14.9 89.5 29.8 104.4 29.8 104.4 0 89.5 0 74.6 0 59.7 0 59.7 14.9 74.6 14.9 89.5 14.9"/>
  <polygon class="st0" points="89.5 104.4 104.4 104.4 104.4 59.7 104.4 29.8 89.5 29.8 89.5 59.7 89.5 89.5 74.6 89.5 59.7 89.5 59.7 104.4 74.6 104.4 89.5 104.4"/>
  <polygon class="st0" points="74.6 328.2 59.7 328.2 59.7 343.2 74.6 343.2 89.5 343.2 89.5 417.8 74.6 417.8 59.7 417.8 59.7 432.7 74.6 432.7 89.5 432.7 104.4 432.7 104.4 328.2 89.5 328.2 74.6 328.2"/>
  <rect class="st0" x="89.5" y="268.6" width="14.9" height="14.9"/>
  <polygon class="st0" points="89.5 298.4 89.5 313.3 104.4 313.3 119.4 313.3 119.4 283.5 104.4 283.5 104.4 298.4 89.5 298.4"/>
  <path class="st0" d="M104.4,179h-14.9v-14.9h14.9v-14.9h-14.9v-14.9h14.9v-14.9h-29.8v14.9h-14.9v59.7h14.9v29.8h-14.9v14.9h14.9v29.8h14.9v-14.9h29.8v-44.8h-29.8v-14.9h29.8v-29.8h-14.9v14.9ZM104.4,223.8v14.9h-14.9v-14.9h14.9Z"/>
  <rect class="st0" x="119.4" y="74.6" width="14.9" height="29.8"/>
  <polygon class="st0" points="119.4 119.4 119.4 134.3 134.3 134.3 149.2 134.3 149.2 119.4 134.3 119.4 119.4 119.4"/>
  <rect class="st0" x="119.4" y="313.3" width="14.9" height="14.9"/>
  <rect class="st0" x="119.4" y="417.8" width="14.9" height="14.9"/>
  <rect class="st0" x="134.3" y="14.9" width="14.9" height="14.9"/>
  <polygon class="st0" points="134.3 44.8 134.3 59.7 134.3 74.6 149.2 74.6 149.2 59.7 164.1 59.7 164.1 44.8 149.2 44.8 134.3 44.8"/>
  <rect class="st0" x="134.3" y="149.2" width="14.9" height="29.8"/>
  <polygon class="st0" points="134.3 268.6 134.3 313.3 149.2 313.3 149.2 328.2 134.3 328.2 134.3 343.2 119.4 343.2 119.4 358.1 134.3 358.1 134.3 373 119.4 373 119.4 387.9 134.3 387.9 134.3 373 149.2 373 149.2 387.9 164.1 387.9 164.1 358.1 149.2 358.1 149.2 343.2 164.1 343.2 164.1 268.6 149.2 268.6 134.3 268.6"/>
  <rect class="st0" x="134.3" y="387.9" width="14.9" height="14.9"/>
  <rect class="st0" x="149.2" width="14.9" height="14.9"/>
  <rect class="st0" x="149.2" y="89.5" width="14.9" height="29.8"/>
  <polygon class="st0" points="149.2 223.8 134.3 223.8 134.3 238.7 149.2 238.7 149.2 223.8 164.1 223.8 164.1 179 149.2 179 149.2 223.8"/>
  <rect class="st0" x="149.2" y="417.8" width="14.9" height="14.9"/>
  <rect class="st0" x="164.1" y="29.8" width="14.9" height="14.9"/>
  <rect class="st0" x="164.1" y="358.1" width="14.9" height="14.9"/>
  <polygon class="st0" points="179 387.9 164.1 387.9 164.1 417.8 179 417.8 179 432.7 194 432.7 194 402.8 179 402.8 179 387.9"/>
  <rect class="st0" x="179" y="89.5" width="14.9" height="14.9"/>
  <polygon class="st0" points="194 298.4 194 283.5 179 283.5 164.1 283.5 164.1 298.4 179 298.4 194 298.4"/>
  <polygon class="st0" points="179 343.2 194 343.2 194 313.3 179 313.3 164.1 313.3 164.1 328.2 179 328.2 179 343.2"/>
  <polygon class="st0" points="208.9 373 194 373 179 373 179 387.9 194 387.9 208.9 387.9 208.9 373"/>
  <rect class="st0" x="208.9" width="14.9" height="14.9"/>
  <polygon class="st0" points="208.9 29.8 208.9 44.8 194 44.8 179 44.8 179 59.7 179 74.6 194 74.6 194 59.7 208.9 59.7 208.9 44.8 223.8 44.8 238.7 44.8 238.7 29.8 223.8 29.8 208.9 29.8"/>
  <polygon class="st0" points="208.9 253.6 208.9 238.7 194 238.7 179 238.7 179 208.9 164.1 208.9 164.1 268.6 179 268.6 179 253.6 194 253.6 194 268.6 208.9 268.6 208.9 298.4 223.8 298.4 223.8 313.3 208.9 313.3 208.9 328.2 223.8 328.2 223.8 328.2 238.7 328.2 238.7 298.4 223.8 298.4 223.8 283.5 238.7 283.5 238.7 253.6 223.8 253.6 208.9 253.6"/>
  <polygon class="st0" points="208.9 343.2 208.9 358.1 223.8 358.1 238.7 358.1 238.7 343.2 223.8 343.2 208.9 343.2"/>
  <polygon class="st0" points="223.8 402.8 208.9 402.8 208.9 432.7 223.8 432.7 238.7 432.7 238.7 417.8 223.8 417.8 223.8 402.8"/>
  <rect class="st0" x="223.8" y="74.6" width="14.9" height="14.9"/>
  <polygon class="st0" points="223.8 119.4 208.9 119.4 208.9 104.4 223.8 104.4 223.8 89.5 208.9 89.5 208.9 104.4 194 104.4 194 119.4 179 119.4 164.1 119.4 164.1 134.3 179 134.3 194 134.3 194 119.4 208.9 119.4 208.9 134.3 194 134.3 194 164.1 179 164.1 179 149.2 164.1 149.2 164.1 194 179 194 194 194 194 179 208.9 179 208.9 194 194 194 194 223.8 208.9 223.8 208.9 223.8 223.8 223.8 223.8 238.7 238.7 238.7 238.7 223.8 223.8 223.8 223.8 208.9 238.7 208.9 238.7 179 223.8 179 208.9 179 208.9 164.1 223.8 164.1 238.7 164.1 238.7 134.3 223.8 134.3 223.8 149.2 208.9 149.2 208.9 134.3 223.8 134.3 223.8 119.4 238.7 119.4 238.7 104.4 223.8 104.4 223.8 119.4"/>
  <rect class="st0" x="223.8" y="373" width="14.9" height="29.8"/>
  <rect class="st0" x="238.7" y="14.9" width="14.9" height="14.9"/>
  <rect class="st0" x="238.7" y="44.8" width="14.9" height="14.9"/>
  <polygon class="st0" points="238.7 149.2 253.6 149.2 253.6 119.4 268.6 119.4 268.6 134.3 283.5 134.3 298.4 134.3 298.4 104.4 283.5 104.4 283.5 119.4 268.6 119.4 268.6 104.4 253.6 104.4 253.6 74.6 238.7 74.6 238.7 149.2"/>
  <rect class="st0" x="238.7" y="164.1" width="14.9" height="14.9"/>
  <rect class="st0" x="238.7" y="194" width="14.9" height="14.9"/>
  <rect class="st0" x="238.7" y="253.6" width="14.9" height="29.8"/>
  <rect class="st0" x="253.6" y="29.8" width="14.9" height="14.9"/>
  <rect class="st0" x="253.6" y="149.2" width="14.9" height="14.9"/>
  <rect class="st0" x="253.6" y="179" width="14.9" height="14.9"/>
  <rect class="st0" x="253.6" y="223.8" width="14.9" height="29.8"/>
  <polygon class="st0" points="268.6 0 268.6 14.9 283.5 14.9 298.4 14.9 298.4 0 283.5 0 268.6 0"/>
  <polygon class="st0" points="268.6 59.7 253.6 59.7 253.6 74.6 268.6 74.6 283.5 74.6 283.5 59.7 283.5 44.8 268.6 44.8 268.6 59.7"/>
  <rect class="st0" x="268.6" y="89.5" width="14.9" height="14.9"/>
  <rect class="st0" x="268.6" y="164.1" width="14.9" height="14.9"/>
  <polygon class="st0" points="268.6 283.5 253.6 283.5 253.6 298.4 268.6 298.4 283.5 298.4 298.4 298.4 298.4 283.5 283.5 283.5 268.6 283.5"/>
  <polygon class="st0" points="268.6 313.3 253.6 313.3 253.6 328.2 238.7 328.2 238.7 343.2 253.6 343.2 253.6 343.2 268.6 343.2 268.6 328.2 283.5 328.2 298.4 328.2 298.4 313.3 283.5 313.3 268.6 313.3"/>
  <rect class="st0" x="268.6" y="343.2" width="14.9" height="14.9"/>
  <polygon class="st0" points="268.6 373 268.6 358.1 253.6 358.1 238.7 358.1 238.7 373 253.6 373 253.6 387.9 268.6 387.9 268.6 402.8 253.6 402.8 253.6 387.9 238.7 387.9 238.7 417.8 253.6 417.8 268.6 417.8 268.6 432.7 283.5 432.7 283.5 417.8 298.4 417.8 298.4 373 283.5 373 268.6 373"/>
  <rect class="st0" x="283.5" y="29.8" width="14.9" height="14.9"/>
  <rect class="st0" x="283.5" y="74.6" width="14.9" height="14.9"/>
  <rect class="st0" x="283.5" y="149.2" width="14.9" height="14.9"/>
  <rect class="st0" x="283.5" y="194" width="14.9" height="14.9"/>
  <rect class="st0" x="283.5" y="223.8" width="14.9" height="29.8"/>
  <rect class="st0" x="298.4" y="29.8" width="14.9" height="14.9"/>
  <rect class="st0" x="298.4" y="59.7" width="14.9" height="59.7"/>
  <polygon class="st0" points="328.2 164.1 328.2 149.2 343.2 149.2 343.2 134.3 328.2 134.3 328.2 119.4 313.3 119.4 313.3 134.3 328.2 134.3 328.2 149.2 313.3 149.2 313.3 134.3 298.4 134.3 298.4 179 313.3 179 313.3 164.1 328.2 164.1"/>
  <rect class="st0" x="328.2" y="328.2" width="14.9" height="14.9"/>
  <rect class="st0" x="343.2" y="119.4" width="14.9" height="14.9"/>
  <rect class="st0" x="343.2" y="149.2" width="14.9" height="14.9"/>
  <polygon class="st0" points="358.1 402.8 343.2 402.8 343.2 432.7 358.1 432.7 373 432.7 373 417.8 358.1 417.8 358.1 402.8"/>
  <polygon class="st0" points="373 164.1 358.1 164.1 358.1 179 373 179 373 194 387.9 194 387.9 179 373 179 373 164.1"/>
  <polygon class="st0" points="373 0 358.1 0 343.2 0 328.2 0 328.2 29.8 343.2 29.8 343.2 14.9 358.1 14.9 373 14.9 373 14.9 387.9 14.9 387.9 0 373 0 373 0"/>
  <polygon class="st0" points="373 29.8 358.1 29.8 358.1 59.7 358.1 74.6 373 74.6 373 74.6 387.9 74.6 387.9 59.7 387.9 29.8 373 29.8 373 29.8"/>
  <polygon class="st0" points="373 89.5 358.1 89.5 343.2 89.5 343.2 59.7 343.2 29.8 328.2 29.8 328.2 59.7 328.2 104.4 343.2 104.4 358.1 104.4 373 104.4 373 104.4 387.9 104.4 387.9 89.5 373 89.5 373 89.5"/>
  <rect class="st0" x="373" y="134.3" width="14.9" height="29.8"/>
  <polygon class="st0" points="373 208.9 358.1 208.9 358.1 223.8 373 223.8 373 238.7 387.9 238.7 387.9 208.9 373 208.9 373 208.9"/>
  <path class="st0" d="M373,268.6h-14.9v-14.9h-29.8v-14.9h-14.9v-14.9h14.9v14.9h14.9v-14.9h-14.9v-29.8h14.9v-29.8h-14.9v14.9h-14.9v14.9h-14.9v59.7h14.9v14.9h-14.9v14.9h14.9v14.9h-14.9v134.3h14.9v-59.7h14.9v14.9h29.8v14.9h29.8v-29.8h-14.9v-14.9h14.9v-14.9h-14.9v-44.8h-14.9v-14.9h14.9v-14.9h14.9v-14.9h-14.9v14.9ZM328.2,268.6h14.9v29.8h-14.9v-29.8ZM358.1,358.1h-44.8v-44.8h14.9s14.9,0,14.9,0h0s14.9,0,14.9,0v44.8Z"/>
  <polygon class="st0" points="402.8 59.7 402.8 29.8 387.9 29.8 387.9 59.7 387.9 74.6 402.8 74.6 402.8 59.7"/>
  <polygon class="st0" points="387.9 149.2 387.9 179 402.8 179 402.8 194 417.8 194 432.7 194 432.7 179 417.8 179 417.8 149.2 402.8 149.2 387.9 149.2"/>
  <polygon class="st0" points="387.9 328.2 402.8 328.2 402.8 343.2 417.8 343.2 417.8 328.2 432.7 328.2 432.7 313.3 417.8 313.3 402.8 313.3 402.8 298.4 387.9 298.4 387.9 328.2"/>
  <rect class="st0" x="387.9" y="343.2" width="14.9" height="14.9"/>
  <rect class="st0" x="387.9" y="373" width="14.9" height="29.8"/>
  <polygon class="st0" points="402.8 208.9 387.9 208.9 387.9 223.8 402.8 223.8 402.8 253.6 417.8 253.6 417.8 223.8 432.7 223.8 432.7 208.9 417.8 208.9 402.8 208.9"/>
  <polygon class="st0" points="402.8 268.6 402.8 298.4 417.8 298.4 417.8 298.4 432.7 298.4 432.7 253.6 417.8 253.6 417.8 268.6 402.8 268.6"/>
  <rect class="st0" x="402.8" y="358.1" width="14.9" height="14.9"/>
  <rect class="st0" x="402.8" y="402.8" width="14.9" height="29.8"/>
  <polygon class="st0" points="417.8 0 402.8 0 387.9 0 387.9 14.9 402.8 14.9 417.8 14.9 417.8 29.8 432.7 29.8 432.7 0 417.8 0"/>
  <polygon class="st0" points="417.8 59.7 417.8 89.5 402.8 89.5 387.9 89.5 387.9 104.4 402.8 104.4 417.8 104.4 432.7 104.4 432.7 59.7 432.7 29.8 417.8 29.8 417.8 59.7"/>
  <rect class="st0" x="417.8" y="134.3" width="14.9" height="14.9"/>
  <rect class="st0" x="417.8" y="373" width="14.9" height="29.8"/>
</svg>